<svg xmlns="http://www.w3.org/2000/svg" xmlns:xlink="http://www.w3.org/1999/xlink" width="600" zoomAndPan="magnify" viewBox="0 0 450 299.999988" height="400" preserveAspectRatio="xMidYMid meet" version="1.0"><rect x="-45" width="540" fill="#ffffff" y="-29.999999" height="359.999986" fill-opacity="1"/><rect x="-45" width="540" fill="#056526" y="-29.999999" height="359.999986" fill-opacity="1"/><path fill="#ffaf8a" d="M 204.027344 61.359375 C 202.597656 57.347656 202.65625 49.382812 202.910156 45.027344 C 203.878906 27.90625 214.046875 15.226562 229.089844 15.628906 C 241.820312 15.972656 252.539062 20.523438 254.046875 41.046875 C 254.210938 43.238281 253.941406 53.5 253.761719 55.664062 C 252.554688 70.234375 242.566406 78.648438 229.746094 77.992188 C 215.925781 77.289062 208.144531 72.949219 204.027344 61.359375 Z M 153.207031 68.816406 C 157.425781 64.089844 167.113281 53.082031 167.726562 50.84375 C 168.515625 47.964844 166.414062 43.523438 166.027344 42.746094 C 165.640625 41.957031 159.75 36.214844 158.183594 36.214844 C 156.621094 36.214844 144.46875 38.4375 142.890625 41.566406 C 141.621094 44.089844 136.96875 57.46875 135.210938 62.582031 C 138.058594 62.894531 142.710938 63.539062 144.722656 64.582031 C 147.121094 65.820312 151.519531 67.980469 153.207031 68.816406 Z M 348.207031 70.964844 C 348.34375 69.398438 351.472656 64.953125 352.398438 60.511719 C 353.308594 56.066406 352.007812 54.632812 350.445312 52.007812 C 348.878906 49.398438 336.324219 42.460938 336.324219 42.460938 C 336.324219 42.460938 336.460938 42.195312 333.449219 42.460938 C 330.4375 42.730469 326.128906 44.417969 325.21875 45.59375 C 324.308594 46.773438 321.433594 51.875 321.164062 54.484375 C 320.894531 57.09375 326.515625 65.207031 327.441406 68.996094 C 327.960938 71.160156 328.574219 75.289062 328.992188 78.421875 L 348.28125 77.214844 C 348.191406 74.46875 348.148438 71.695312 348.207031 70.964844 Z M 348.207031 70.964844 " fill-opacity="1" fill-rule="nonzero"/><path fill="#fbc6bd" d="M 350.265625 86.402344 L 350.429688 86.402344 L 350.042969 77.125 L 348.28125 77.230469 L 328.992188 78.4375 L 327.171875 78.558594 C 327.171875 78.558594 326.515625 81.167969 326.785156 83.269531 C 327.054688 85.359375 327.304688 87.191406 327.304688 87.191406 L 327.441406 87.191406 L 323.816406 145.824219 C 323.816406 145.824219 288.246094 115.816406 285.59375 112.875 C 285.039062 112.265625 282.910156 111.058594 279.914062 109.550781 C 280.925781 110.894531 281.851562 112.292969 282.609375 113.769531 C 284.683594 117.769531 285.429688 122.527344 283.445312 125.75 C 282.863281 124.359375 282.148438 122.988281 281.148438 121.796875 C 279.03125 119.289062 275.960938 117.917969 273.011719 116.875 C 270.074219 115.828125 267 114.980469 264.363281 113.085938 C 262.78125 111.953125 261.410156 110.488281 260.113281 109.027344 C 258.25 106.925781 256.417969 104.6875 255.03125 102.300781 C 248.230469 107.894531 239.035156 110.429688 230.28125 110.789062 C 217.847656 111.296875 204.058594 107.984375 198.078125 95.886719 C 197.066406 93.828125 196.335938 91.652344 195.84375 89.414062 C 189.6875 89.609375 182.679688 90.398438 177.105469 92.546875 C 168.710938 95.796875 135.941406 121.988281 135.941406 121.988281 L 150.089844 76.140625 L 150.238281 76.199219 L 153.890625 69.144531 C 153.890625 69.144531 153.636719 69.027344 153.21875 68.816406 C 151.550781 67.996094 147.136719 65.820312 144.738281 64.566406 C 142.726562 63.523438 138.089844 62.882812 135.226562 62.566406 C 133.808594 62.417969 132.839844 62.34375 132.839844 62.34375 L 130.46875 68.101562 L 130.8125 68.234375 C 128.054688 72.144531 117.632812 87.074219 111.789062 96.976562 C 105.035156 108.445312 91.8125 136.992188 95.046875 149.046875 C 98.28125 161.113281 114.160156 166.988281 125.921875 164.929688 C 137.6875 162.871094 176.210938 145.808594 176.210938 145.808594 C 176.210938 145.808594 177.625 153.265625 178.460938 160.605469 C 179.90625 173.371094 181.351562 218.96875 187.183594 218.9375 L 269.863281 218.9375 C 269.894531 218.9375 269.921875 218.9375 269.953125 218.9375 C 271.609375 218.890625 275.53125 217.550781 275.679688 215.96875 L 278.539062 160.515625 C 278.539062 160.515625 285.292969 169.417969 297.652344 176.488281 C 309.996094 183.542969 322.9375 189.046875 335.296875 186.691406 C 347.640625 184.335938 356.527344 171.105469 357.347656 156.695312 C 358.0625 143.855469 352.171875 100.09375 350.265625 86.402344 Z M 350.265625 86.402344 " fill-opacity="1" fill-rule="nonzero"/><path fill="#ffffff" d="M 236.023438 64.207031 C 236.023438 64.207031 235.722656 64.777344 235.15625 65.550781 C 233.890625 67.3125 231.339844 70.160156 228.089844 70.070312 C 223.976562 69.949219 221.769531 66.222656 220.84375 64.058594 C 220.472656 63.179688 220.292969 62.566406 220.292969 62.566406 Z M 236.023438 64.207031 " fill-opacity="1" fill-rule="nonzero"/><path fill="#fc8d7c" d="M 298.054688 299.835938 L 171.574219 299.941406 C 174.496094 281.101562 178.773438 248.289062 184.335938 238.074219 C 189.449219 228.632812 191.058594 224.949219 191.550781 223.5625 L 191.492188 223.5625 L 191.492188 218.9375 L 269.847656 218.9375 C 269.878906 218.9375 269.910156 218.9375 269.9375 218.9375 L 269.9375 223.308594 C 271.726562 225.261719 282.386719 237.597656 291.242188 262.207031 C 294.835938 272.226562 298.054688 299.835938 298.054688 299.835938 Z M 228.089844 70.070312 C 231.339844 70.160156 233.890625 67.3125 235.15625 65.550781 L 220.84375 64.058594 C 221.769531 66.207031 223.976562 69.949219 228.089844 70.070312 Z M 227.285156 60.0625 C 229.773438 60.597656 231.550781 59.300781 231.578125 56.484375 C 231.609375 53.722656 230.757812 50.933594 230.207031 48.265625 C 230.074219 47.609375 229.058594 47.339844 228.867188 48.117188 C 228.433594 49.785156 228.640625 51.457031 228.851562 53.140625 C 228.96875 54.082031 229.089844 55.019531 229.042969 55.976562 C 229.03125 56.273438 229.074219 56.8125 228.910156 57.035156 C 228.714844 57.304688 228.328125 57.140625 228.015625 57.050781 C 225.988281 56.453125 225.214844 59.613281 227.285156 60.0625 Z M 206.578125 52.039062 C 207.605469 53.128906 209.605469 53.46875 211.378906 53.46875 C 212.4375 53.46875 213.511719 53.351562 214.417969 52.976562 C 215.328125 52.605469 216.042969 51.917969 216.058594 51.144531 C 216.074219 50.589844 215.746094 50.039062 215.3125 49.5625 C 214.417969 48.609375 213.03125 47.875 211.511719 47.578125 C 209.992188 47.265625 208.320312 47.382812 206.933594 47.890625 C 206.324219 48.117188 205.878906 48.609375 205.714844 49.160156 C 205.5625 49.710938 205.652344 50.308594 205.863281 50.859375 C 206.042969 51.277344 206.25 51.695312 206.578125 52.039062 Z M 240.671875 55.007812 C 241.476562 55.558594 242.523438 55.902344 243.550781 56.125 C 245.296875 56.511719 247.308594 56.585938 248.546875 55.753906 C 248.949219 55.484375 249.246094 55.125 249.46875 54.753906 C 249.78125 54.246094 250.007812 53.695312 249.976562 53.128906 C 249.945312 52.546875 249.605469 51.980469 249.050781 51.636719 C 247.800781 50.84375 246.203125 50.382812 244.652344 50.367188 C 243.101562 50.335938 241.597656 50.753906 240.523438 51.5 C 240.003906 51.875 239.554688 52.335938 239.449219 52.886719 C 239.316406 53.632812 239.851562 54.453125 240.671875 55.007812 Z M 240.671875 55.007812 " fill-opacity="1" fill-rule="nonzero"/><path fill="#000000" d="M 289.410156 82.777344 C 285.292969 80.734375 280.628906 80.152344 276.050781 79.585938 C 272.414062 79.140625 268.789062 78.691406 265.152344 78.257812 C 263.914062 78.109375 262.246094 77.855469 260.488281 77.75 C 259.84375 76.378906 259.429688 74.203125 259.398438 73.769531 C 259.203125 71.398438 260.171875 69.652344 261.007812 67.460938 C 262.886719 62.554688 263.585938 54.945312 263.617188 49.679688 C 263.707031 37.210938 263.617188 27.277344 257.371094 17.644531 C 251.632812 8.800781 244.832031 2.699219 234.070312 1.773438 C 214.089844 0.0585938 197.765625 15.792969 196.203125 35.214844 C 195.558594 43.238281 196.53125 51.308594 196.246094 59.363281 C 196.039062 65.535156 195.082031 71.667969 194.890625 77.828125 C 194.800781 80.867188 194.90625 83.941406 195.351562 86.953125 C 195.472656 87.773438 195.636719 88.59375 195.8125 89.414062 C 196.304688 91.652344 197.035156 93.828125 198.050781 95.886719 C 204.027344 108 217.804688 111.296875 230.253906 110.789062 C 239.003906 110.429688 248.21875 107.894531 255 102.300781 C 256.402344 104.6875 258.21875 106.925781 260.085938 109.027344 C 261.394531 110.503906 262.753906 111.953125 264.332031 113.085938 C 266.972656 114.980469 270.027344 115.84375 272.980469 116.875 C 275.917969 117.917969 279.003906 119.289062 281.121094 121.796875 C 282.117188 122.988281 282.847656 124.359375 283.414062 125.75 C 285.398438 122.527344 284.652344 117.769531 282.582031 113.769531 C 281.820312 112.292969 280.894531 110.894531 279.882812 109.550781 C 278.136719 107.253906 276.125 105.105469 274.144531 103.003906 C 272.054688 100.796875 269.96875 98.574219 267.882812 96.367188 C 268.179688 96.410156 268.460938 96.46875 268.761719 96.515625 C 270.699219 96.828125 272.683594 97.082031 274.636719 96.859375 C 277.886719 96.484375 280.835938 94.828125 283.789062 93.414062 C 286.753906 92.011719 290.019531 90.800781 293.242188 91.414062 C 294.761719 91.710938 296.191406 92.398438 297.503906 93.21875 C 297.070312 88.625 293.523438 84.820312 289.410156 82.777344 Z M 229.730469 78.003906 C 215.925781 77.304688 208.144531 72.949219 204.011719 61.375 C 202.582031 57.363281 202.640625 49.398438 202.894531 45.042969 C 203.863281 27.921875 214.03125 15.242188 229.074219 15.644531 C 241.804688 15.988281 252.527344 20.539062 254.03125 41.0625 C 254.195312 43.253906 253.925781 53.515625 253.75 55.675781 C 252.539062 70.25 242.550781 78.648438 229.730469 78.003906 Z M 236.097656 295.734375 C 236.15625 296.242188 235.382812 296.226562 235.304688 295.734375 C 234.695312 291.125 234.128906 286.503906 233.578125 281.894531 C 231.699219 265.726562 230.207031 249.511719 229.132812 233.269531 C 229.105469 232.761719 229.878906 232.761719 229.925781 233.269531 C 230.238281 237.910156 230.582031 242.546875 230.953125 247.1875 C 232.25 263.414062 233.980469 279.597656 236.097656 295.734375 Z M 251.363281 296.734375 C 251.511719 297.210938 250.75 297.421875 250.601562 296.941406 C 247.097656 285.742188 244.402344 274.285156 242.523438 262.699219 C 242.449219 262.207031 243.191406 261.996094 243.28125 262.488281 C 245.160156 274.078125 247.859375 285.53125 251.363281 296.734375 Z M 279.242188 295.539062 C 279.480469 295.988281 278.75 296.257812 278.511719 295.824219 C 276.4375 291.976562 274.960938 287.859375 273.710938 283.667969 C 271.355469 275.71875 269.34375 267.664062 267.195312 259.671875 C 264.988281 251.453125 262.769531 243.25 260.5625 235.03125 C 260.425781 234.554688 261.15625 234.269531 261.292969 234.746094 C 262.542969 239.386719 263.796875 244.023438 265.035156 248.664062 C 267.242188 256.882812 269.460938 265.085938 271.667969 273.300781 C 273.710938 280.847656 275.515625 288.605469 279.242188 295.539062 Z M 208.738281 232.867188 C 208.398438 237.625 207.933594 242.382812 207.324219 247.125 C 205.160156 263.847656 201.242188 280.328125 195.679688 296.242188 C 195.515625 296.71875 194.753906 296.511719 194.917969 296.03125 C 196.46875 291.574219 197.914062 287.082031 199.214844 282.535156 C 203.847656 266.335938 206.773438 249.675781 207.964844 232.867188 C 207.992188 232.375 208.769531 232.375 208.738281 232.867188 Z M 220.351562 37.570312 C 219.980469 39.015625 216.269531 37.914062 215.566406 37.839844 C 212.644531 37.554688 210.484375 37.78125 207.5625 37.734375 C 207.039062 37.734375 206.933594 37.0625 207.261719 36.78125 C 208.769531 35.453125 211.066406 35.378906 213.03125 35.394531 C 215.476562 35.40625 217.3125 35.691406 219.59375 36.527344 C 219.996094 36.691406 220.472656 37.078125 220.351562 37.570312 Z M 252.449219 39.507812 C 252.71875 39.851562 252.496094 40.480469 251.960938 40.390625 C 248.976562 39.867188 245.964844 39.480469 242.953125 39.210938 C 242.222656 39.152344 239.109375 39.316406 239.003906 37.824219 C 238.972656 37.332031 239.527344 37.019531 239.972656 36.945312 C 242.449219 36.542969 244.371094 36.617188 246.84375 37.0625 C 248.859375 37.421875 251.167969 37.914062 252.449219 39.507812 Z M 218.863281 45.9375 C 219.085938 46.609375 218.625 47.117188 218.207031 46.535156 C 216.96875 44.835938 215.015625 43.851562 212.792969 43.445312 C 210.484375 43.042969 209.230469 43.878906 207.652344 45.117188 C 207.488281 45.371094 207.039062 45.191406 207.144531 44.910156 C 207.292969 44.535156 207.488281 44.191406 207.742188 43.878906 C 207.515625 43.761719 207.308594 43.492188 207.203125 43.359375 C 206.949219 43.015625 206.800781 42.640625 206.742188 42.222656 C 206.726562 42.121094 206.859375 42.058594 206.90625 42.164062 C 207.097656 42.550781 207.382812 42.953125 207.695312 43.253906 C 207.753906 43.296875 207.90625 43.417969 208.039062 43.523438 C 208.203125 43.34375 208.398438 43.179688 208.589844 43.03125 C 208.457031 42.910156 208.335938 42.789062 208.246094 42.703125 C 207.917969 42.34375 207.710938 41.925781 207.578125 41.449219 C 207.546875 41.34375 207.695312 41.300781 207.742188 41.390625 C 207.949219 41.746094 208.234375 42.089844 208.515625 42.386719 C 208.648438 42.523438 208.8125 42.65625 208.964844 42.761719 C 209.171875 42.625 209.378906 42.507812 209.605469 42.402344 C 209.230469 42.03125 209.023438 41.464844 208.933594 40.957031 C 208.886719 40.734375 209.230469 40.582031 209.320312 40.808594 C 209.5 41.210938 209.707031 41.671875 210.023438 41.984375 C 210.082031 42.046875 210.140625 42.105469 210.214844 42.148438 C 211.09375 41.851562 212.078125 41.730469 213.0625 41.867188 C 215.566406 42.222656 218.160156 43.789062 218.863281 45.9375 Z M 251.839844 45.921875 C 251.691406 46.3125 251.496094 46.652344 251.183594 46.9375 C 251.066406 47.054688 250.796875 47.28125 250.542969 47.355469 C 250.722656 47.710938 250.855469 48.085938 250.929688 48.472656 C 250.988281 48.773438 250.511719 48.859375 250.394531 48.578125 C 249.082031 47.042969 248.007812 45.984375 245.667969 45.9375 C 243.417969 45.894531 241.300781 46.476562 239.765625 47.90625 C 239.226562 48.398438 238.882812 47.816406 239.226562 47.191406 C 240.332031 45.222656 243.179688 44.191406 245.683594 44.34375 C 246.667969 44.402344 247.589844 44.699219 248.394531 45.164062 C 248.457031 45.148438 248.5 45.132812 248.546875 45.101562 C 248.960938 44.878906 249.277344 44.417969 249.542969 44.042969 C 249.679688 43.851562 250.007812 44 249.917969 44.222656 C 249.722656 44.699219 249.410156 45.222656 248.960938 45.535156 C 249.15625 45.683594 249.351562 45.832031 249.527344 46.011719 C 249.707031 45.9375 249.886719 45.832031 250.035156 45.730469 C 250.378906 45.492188 250.722656 45.207031 251.003906 44.894531 C 251.078125 44.804688 251.183594 44.921875 251.140625 45.011719 C 250.914062 45.460938 250.617188 45.832031 250.199219 46.132812 C 250.109375 46.207031 249.992188 46.28125 249.855469 46.355469 C 250.019531 46.550781 250.183594 46.742188 250.320312 46.953125 C 250.4375 46.878906 250.601562 46.804688 250.660156 46.773438 C 251.050781 46.535156 251.40625 46.191406 251.691406 45.832031 C 251.734375 45.757812 251.882812 45.820312 251.839844 45.921875 Z M 230.863281 48.128906 C 231.222656 51.144531 231.652344 54.277344 231.578125 57.316406 C 231.535156 59.183594 229.878906 59.554688 228.238281 59.855469 C 227.582031 59.972656 227.417969 58.957031 228.074219 58.839844 C 229.476562 58.585938 230.417969 58.40625 230.535156 56.824219 C 230.609375 55.871094 230.429688 54.8125 230.371094 53.871094 C 230.238281 52.007812 230.058594 50.160156 229.835938 48.292969 C 229.773438 47.636719 230.789062 47.472656 230.863281 48.128906 Z M 151.402344 46.148438 C 151.179688 45.832031 151.699219 45.535156 151.910156 45.847656 C 152.96875 47.371094 153.070312 49.339844 153.101562 51.128906 C 153.117188 51.203125 153.117188 51.292969 153.054688 51.351562 C 152.953125 51.515625 152.683594 51.515625 152.5625 51.335938 C 152.5625 51.335938 152.5625 51.324219 152.550781 51.324219 C 152.503906 51.261719 152.503906 51.171875 152.519531 51.097656 C 152.488281 49.503906 152.402344 47.5625 151.402344 46.148438 Z M 153.054688 52.335938 C 153.011719 52.292969 152.996094 52.246094 152.980469 52.203125 C 152.503906 53.886719 150.9375 55.140625 149.164062 55.183594 C 148.464844 55.199219 147.613281 55.097656 147.449219 54.304688 C 147.316406 53.648438 147.4375 52.828125 147.421875 52.171875 C 147.421875 51.589844 147.421875 50.996094 147.421875 50.414062 C 146.347656 51.234375 145.109375 51.769531 143.753906 51.949219 C 143.378906 51.992188 143.21875 51.425781 143.605469 51.382812 C 145.050781 51.1875 146.332031 50.605469 147.4375 49.652344 C 147.601562 49.515625 147.792969 49.578125 147.898438 49.710938 C 147.972656 49.757812 148.03125 49.832031 148.03125 49.949219 C 148.03125 50.875 148.03125 51.800781 148.046875 52.738281 C 148.046875 53.722656 147.929688 54.648438 149.195312 54.617188 C 150.746094 54.589844 152.101562 53.457031 152.476562 51.964844 C 152.5625 51.636719 153.027344 51.726562 153.054688 52.007812 C 153.144531 51.859375 153.355469 51.769531 153.503906 51.949219 C 154.53125 53.140625 156.023438 51.949219 156.277344 50.800781 C 156.46875 49.921875 156.320312 49.039062 155.976562 48.21875 C 155.828125 47.875 156.394531 47.710938 156.546875 48.070312 C 157.050781 49.292969 157.230469 51.070312 156.304688 52.15625 C 155.902344 52.636719 155.097656 53.039062 154.472656 53.097656 C 153.832031 53.113281 153.429688 52.769531 153.054688 52.335938 Z M 163.699219 43.359375 C 162.269531 43.207031 160.839844 43.195312 159.421875 43.371094 C 158.15625 43.535156 156.558594 43.730469 155.605469 44.671875 C 154.832031 45.445312 154.621094 46.757812 155.933594 47.117188 C 156.53125 47.28125 157.140625 47.308594 157.738281 47.488281 C 158.78125 47.800781 159.75 48.308594 160.644531 48.949219 C 160.777344 49.054688 160.867188 49.277344 160.703125 49.414062 C 158.574219 51.234375 156.574219 53.203125 154.742188 55.335938 C 154.488281 55.617188 154.085938 55.199219 154.324219 54.917969 C 156.082031 52.886719 157.976562 50.996094 160.019531 49.234375 C 159.304688 48.757812 158.558594 48.367188 157.738281 48.101562 C 156.976562 47.847656 156.128906 47.847656 155.382812 47.546875 C 154.324219 47.132812 154.160156 45.96875 154.621094 45.027344 C 155.292969 43.65625 156.84375 43.207031 158.230469 42.941406 C 160.035156 42.597656 161.882812 42.550781 163.699219 42.746094 C 164.074219 42.804688 164.074219 43.402344 163.699219 43.359375 Z M 337.921875 59.4375 C 336.445312 60.808594 333.820312 59.703125 333.253906 57.914062 C 332.539062 58.078125 331.75 57.644531 331.511719 56.945312 C 331.675781 58.300781 331.792969 59.675781 331.941406 61.03125 C 331.988281 61.40625 331.390625 61.40625 331.363281 61.03125 C 331.183594 59.347656 331.035156 57.660156 330.808594 55.992188 C 330.570312 54.15625 330.003906 52.457031 329.363281 50.742188 C 329.332031 50.652344 329.332031 50.578125 329.378906 50.53125 C 329.332031 50.414062 329.347656 50.261719 329.496094 50.1875 C 330.855469 49.472656 332.09375 48.59375 333.179688 47.535156 C 334.195312 46.535156 335.714844 45.027344 335.820312 43.535156 C 335.847656 43.164062 336.429688 43.164062 336.402344 43.535156 C 336.296875 45.058594 335.027344 46.429688 334.03125 47.503906 C 332.835938 48.773438 331.449219 49.816406 329.929688 50.636719 C 330.542969 52.277344 331.09375 53.902344 331.347656 55.648438 C 331.390625 55.976562 331.4375 56.304688 331.480469 56.617188 C 331.554688 56.347656 331.988281 56.273438 332.03125 56.601562 C 332.105469 57.140625 332.628906 57.511719 333.152344 57.363281 C 333.0625 55.945312 333.375 54.214844 333.777344 52.859375 C 334.222656 51.335938 335.253906 50.113281 335.746094 48.609375 C 335.863281 48.25 336.429688 48.398438 336.3125 48.757812 C 336.011719 49.679688 335.507812 50.503906 335.042969 51.367188 C 334.507812 52.367188 334.195312 53.410156 334.015625 54.515625 C 333.851562 55.527344 333.417969 57.230469 333.957031 58.183594 C 334.582031 59.285156 336.535156 59.941406 337.503906 59.035156 C 337.785156 58.765625 338.203125 59.183594 337.921875 59.4375 Z M 341.605469 61.003906 C 339.664062 61.152344 338.144531 60.40625 337.980469 58.332031 C 337.773438 55.8125 338.398438 53.246094 339.472656 50.996094 C 339.636719 50.652344 340.140625 50.949219 339.980469 51.292969 C 339.128906 53.066406 338.621094 54.976562 338.546875 56.945312 C 338.515625 57.855469 338.414062 59.109375 339.113281 59.824219 C 339.753906 60.480469 340.769531 60.480469 341.605469 60.421875 C 341.976562 60.390625 341.976562 60.972656 341.605469 61.003906 Z M 345.449219 62.628906 C 343.898438 63.433594 342.824219 60.972656 342.765625 59.792969 C 342.617188 57.496094 343.183594 55.214844 344.242188 53.1875 C 344.421875 52.859375 344.929688 53.140625 344.75 53.484375 C 344.019531 54.871094 343.542969 56.347656 343.378906 57.914062 C 343.304688 58.601562 343.289062 59.285156 343.347656 59.972656 C 343.394531 60.539062 344.167969 62.644531 345.136719 62.136719 C 345.496094 61.941406 345.792969 62.449219 345.449219 62.628906 Z M 136.554688 121.109375 C 135.417969 123.375 134.941406 125.957031 134.316406 128.402344 C 133.675781 130.910156 133.019531 133.414062 132.378906 135.933594 C 132.257812 136.425781 131.5 136.21875 131.617188 135.726562 C 132.304688 133.101562 132.976562 130.460938 133.660156 127.835938 C 134.273438 125.433594 134.777344 122.960938 135.882812 120.722656 C 136.105469 120.257812 136.777344 120.664062 136.554688 121.109375 Z M 324.292969 146.867188 C 324.292969 148.703125 324.292969 150.523438 324.292969 152.355469 C 324.292969 152.863281 323.503906 152.863281 323.503906 152.355469 C 323.503906 150.523438 323.503906 148.703125 323.503906 146.867188 C 323.503906 146.359375 324.292969 146.359375 324.292969 146.867188 Z M 281.523438 144.707031 C 280.671875 151.191406 279.523438 157.621094 278.050781 163.992188 C 277.929688 164.484375 277.183594 164.273438 277.289062 163.78125 C 278.75 157.488281 279.898438 151.117188 280.730469 144.707031 C 280.808594 144.214844 281.597656 144.214844 281.523438 144.707031 Z M 219.445312 203.230469 C 219.832031 203.785156 218.921875 204.304688 218.550781 203.753906 C 216.359375 200.667969 214.253906 197.519531 212.226562 194.3125 C 208.695312 188.71875 205.445312 182.960938 202.464844 177.054688 C 200.941406 174.058594 199.496094 171.015625 198.125 167.929688 C 196.8125 164.976562 195.5 161.992188 195.023438 158.785156 C 194.917969 158.128906 195.933594 157.84375 196.039062 158.5 C 196.605469 162.273438 198.273438 165.765625 199.855469 169.210938 C 205.296875 181.140625 211.871094 192.539062 219.445312 203.230469 Z M 214.851562 205.558594 C 215.285156 206.066406 214.539062 206.8125 214.105469 206.289062 C 212.019531 203.796875 210.273438 201.082031 208.917969 198.128906 C 208.636719 197.519531 209.542969 196.996094 209.8125 197.609375 C 211.15625 200.472656 212.824219 203.140625 214.851562 205.558594 Z M 214.851562 205.558594 " fill-opacity="1" fill-rule="nonzero"/></svg>