<svg xmlns="http://www.w3.org/2000/svg" xmlns:xlink="http://www.w3.org/1999/xlink" width="600" zoomAndPan="magnify" viewBox="0 0 450 299.999988" height="400" preserveAspectRatio="xMidYMid meet" version="1.0"><rect x="-45" width="540" fill="#ffffff" y="-29.999999" height="359.999986" fill-opacity="1"/><rect x="-45" width="540" fill="#056526" y="-29.999999" height="359.999986" fill-opacity="1"/><path fill="#fec4b9" d="M 356.8125 279.601562 C 353.570312 272.019531 347.421875 266.082031 339.558594 263.6875 C 334.113281 262.019531 327.117188 260.117188 318.617188 258.21875 L 318.851562 254.695312 C 319.0625 251.503906 316.644531 248.734375 313.429688 248.523438 C 313.289062 248.523438 313.171875 248.5 313.03125 248.5 C 310.003906 248.5 307.46875 250.871094 307.257812 253.945312 L 307.234375 253.945312 L 307.445312 250.824219 C 307.65625 247.628906 305.238281 244.859375 302.023438 244.648438 C 301.902344 244.648438 301.761719 244.625 301.644531 244.625 C 298.617188 244.625 296.058594 246.996094 295.847656 250.070312 L 296.082031 246.457031 C 296.292969 243.242188 293.851562 240.472656 290.660156 240.257812 C 290.519531 240.257812 290.402344 240.234375 290.261719 240.234375 C 287.234375 240.234375 284.671875 242.605469 284.484375 245.683594 L 284.460938 245.683594 L 284.769531 241.035156 C 284.980469 237.839844 282.5625 235.070312 279.34375 234.859375 C 279.226562 234.859375 279.085938 234.835938 278.96875 234.835938 C 268.59375 224.015625 257.773438 217.277344 248.570312 213.121094 L 248.570312 213.097656 C 248.570312 213.097656 322.75 215.65625 331.695312 205.46875 C 340.660156 195.257812 345.683594 78.425781 338.3125 68.003906 C 330.941406 57.554688 276.222656 54.480469 276.222656 54.480469 L 276.199219 54.503906 C 267.75 44.667969 258.476562 38.847656 255.613281 33.472656 C 250.871094 24.550781 248.570312 12.226562 248.570312 12.226562 C 243.359375 13.117188 239.132812 17.015625 235.332031 21.992188 C 238.5 17.71875 239.226562 12.296875 239.179688 6.523438 C 225.398438 20.675781 199.109375 22.90625 181.316406 39.011719 C 176.246094 43.613281 172.089844 48.894531 168.757812 54.480469 C 168.757812 54.480469 119.246094 57.554688 111.875 68.003906 C 104.507812 78.425781 109.53125 195.257812 118.496094 205.46875 C 127.441406 215.65625 201.621094 213.097656 201.621094 213.097656 C 192.417969 217.253906 181.597656 223.992188 171.222656 234.835938 L 171.199219 234.835938 C 171.078125 234.835938 170.960938 234.859375 170.84375 234.859375 C 167.628906 235.070312 165.210938 237.839844 165.421875 241.035156 L 165.726562 245.683594 L 165.703125 245.683594 C 165.515625 242.605469 162.957031 240.234375 159.929688 240.234375 C 159.789062 240.234375 159.671875 240.257812 159.53125 240.257812 C 156.339844 240.472656 153.898438 243.242188 154.109375 246.457031 L 154.34375 250.070312 C 154.132812 246.996094 151.574219 244.625 148.542969 244.625 C 148.425781 244.625 148.285156 244.648438 148.167969 244.648438 C 144.953125 244.859375 142.535156 247.628906 142.746094 250.824219 L 142.957031 253.945312 L 142.933594 253.945312 C 142.722656 250.871094 140.1875 248.5 137.160156 248.5 C 137.019531 248.5 136.902344 248.523438 136.761719 248.523438 C 133.542969 248.734375 131.125 251.503906 131.335938 254.695312 L 131.570312 258.21875 C 123.074219 260.117188 116.078125 262.019531 110.632812 263.6875 C 102.769531 266.082031 96.617188 272.019531 93.378906 279.601562 C 90.398438 286.597656 86.007812 291.597656 79.550781 297.609375 L 370.636719 297.609375 C 364.183594 291.597656 359.792969 286.597656 356.8125 279.601562 Z M 356.8125 279.601562 " fill-opacity="1" fill-rule="nonzero"/><path fill="#f7b6ad" d="M 282.726562 122.910156 C 283.429688 123.050781 284.132812 123.238281 284.816406 123.496094 C 291.925781 126.335938 295.121094 135.609375 291.949219 144.226562 C 289.203125 151.691406 282.609375 156.21875 276.269531 155.445312 C 279.25 146.808594 281.503906 135.351562 282.726562 122.910156 Z M 282.726562 122.910156 " fill-opacity="1" fill-rule="nonzero"/><path fill="#f7b6ad" d="M 173.921875 155.445312 C 167.582031 156.21875 160.984375 151.691406 158.238281 144.226562 C 155.070312 135.609375 158.261719 126.335938 165.375 123.496094 C 166.054688 123.238281 166.761719 123.050781 167.464844 122.910156 C 168.6875 135.351562 170.9375 146.808594 173.921875 155.445312 Z M 173.921875 155.445312 " fill-opacity="1" fill-rule="nonzero"/><path fill="#c3ddda" d="M 158.144531 95.375 C 159.109375 110.046875 167.464844 122.910156 167.464844 122.910156 C 166.761719 123.050781 166.054688 123.238281 165.375 123.496094 C 158.261719 126.335938 155.070312 135.609375 158.238281 144.226562 C 160.984375 151.691406 167.582031 156.21875 173.921875 155.445312 C 175.210938 159.179688 176.621094 162.394531 178.144531 164.929688 C 183.570312 173.96875 195.941406 185.796875 211.011719 190.75 L 211.011719 209.507812 C 208.171875 210.398438 205 211.574219 201.621094 213.097656 C 201.621094 213.097656 127.441406 215.65625 118.496094 205.46875 C 109.53125 195.257812 104.507812 78.425781 111.875 68.003906 C 119.246094 57.554688 168.757812 54.480469 168.757812 54.480469 C 160.46875 68.425781 157.417969 84.175781 158.144531 95.375 Z M 158.144531 95.375 " fill-opacity="1" fill-rule="nonzero"/><path fill="#c3ddda" d="M 282.726562 122.910156 C 282.726562 122.910156 295.542969 102.394531 289.816406 80.140625 C 286.996094 69.175781 281.785156 60.984375 276.199219 54.503906 L 276.222656 54.480469 C 276.222656 54.480469 330.941406 57.554688 338.3125 68.003906 C 345.683594 78.425781 340.660156 195.257812 331.695312 205.46875 C 322.75 215.65625 248.570312 213.097656 248.570312 213.097656 L 248.570312 213.121094 C 245.1875 211.574219 242.019531 210.398438 239.179688 209.507812 L 239.179688 190.75 C 243.335938 189.390625 247.253906 187.511719 250.894531 185.304688 L 276.691406 203.734375 C 281.222656 206.972656 287.679688 205.703125 291.105469 200.890625 L 294.132812 196.667969 C 297.5625 191.855469 296.667969 185.351562 292.140625 182.113281 L 270.800781 166.878906 C 271.246094 166.21875 271.667969 165.5625 272.042969 164.929688 C 273.570312 162.394531 274.980469 159.179688 276.269531 155.445312 C 282.609375 156.21875 289.203125 151.691406 291.949219 144.226562 C 295.121094 135.609375 291.925781 126.335938 284.816406 123.496094 C 284.132812 123.238281 283.429688 123.050781 282.726562 122.910156 Z M 282.726562 122.910156 " fill-opacity="1" fill-rule="nonzero"/><path fill="#f48ca7" d="M 356.8125 279.601562 C 353.570312 272.019531 347.421875 266.082031 339.558594 263.6875 C 334.113281 262.019531 327.117188 260.117188 318.617188 258.21875 L 318.429688 261.222656 C 318.21875 264.296875 315.660156 266.667969 312.632812 266.667969 C 312.492188 266.667969 312.375 266.644531 312.234375 266.644531 C 309.039062 266.433594 306.597656 263.6875 306.808594 260.472656 C 306.644531 262.984375 304.910156 265.023438 302.632812 265.683594 C 302.117188 265.847656 301.574219 265.917969 301.035156 265.917969 C 300.894531 265.917969 300.777344 265.894531 300.636719 265.894531 C 297.421875 265.683594 295.003906 262.914062 295.214844 259.71875 C 295.027344 262.441406 293.007812 264.625 290.425781 265.070312 C 290.097656 265.144531 289.769531 265.167969 289.414062 265.167969 C 289.296875 265.167969 289.15625 265.144531 289.039062 265.144531 C 285.824219 264.929688 283.40625 262.160156 283.617188 258.945312 C 283.429688 261.550781 281.550781 263.664062 279.132812 264.226562 C 278.59375 264.367188 278.007812 264.414062 277.421875 264.367188 C 274.226562 264.15625 271.785156 261.386719 271.996094 258.195312 L 272.46875 250.894531 C 258.359375 249.484375 242.535156 248.59375 225.09375 248.59375 C 207.652344 248.59375 191.832031 249.484375 177.722656 250.894531 L 178.191406 258.195312 C 178.402344 261.386719 175.960938 264.15625 172.769531 264.367188 C 172.136719 264.414062 171.503906 264.34375 170.914062 264.203125 C 168.566406 263.59375 166.761719 261.503906 166.574219 258.945312 C 166.785156 262.160156 164.367188 264.929688 161.148438 265.144531 C 161.03125 265.144531 160.890625 265.167969 160.773438 265.167969 C 159.953125 265.167969 159.179688 265 158.449219 264.671875 C 156.527344 263.828125 155.117188 261.949219 154.976562 259.71875 C 155.1875 262.914062 152.769531 265.683594 149.554688 265.894531 C 149.414062 265.894531 149.296875 265.917969 149.15625 265.917969 C 146.125 265.917969 143.589844 263.546875 143.378906 260.472656 C 143.589844 263.6875 141.148438 266.433594 137.957031 266.644531 C 137.816406 266.644531 137.699219 266.667969 137.558594 266.667969 C 134.53125 266.667969 131.972656 264.296875 131.761719 261.222656 L 131.570312 258.21875 C 123.074219 260.117188 116.078125 262.019531 110.632812 263.6875 C 102.769531 266.082031 96.617188 272.019531 93.378906 279.601562 C 90.398438 286.597656 86.007812 291.597656 79.550781 297.609375 L 370.636719 297.609375 C 364.183594 291.597656 359.792969 286.597656 356.8125 279.601562 Z M 356.8125 279.601562 " fill-opacity="1" fill-rule="nonzero"/><path fill="#ffc05a" d="M 211.011719 209.507812 C 211.011719 209.507812 211.363281 225.871094 225.09375 225.871094 C 238.828125 225.871094 239.179688 209.507812 239.179688 209.507812 C 242.019531 210.398438 245.1875 211.574219 248.570312 213.121094 C 257.773438 217.277344 268.59375 224.015625 278.96875 234.835938 C 275.941406 234.835938 273.382812 237.207031 273.171875 240.28125 L 272.46875 250.894531 C 258.359375 249.484375 242.535156 248.59375 225.09375 248.59375 C 207.652344 248.59375 191.832031 249.484375 177.722656 250.894531 L 177.019531 240.28125 C 176.808594 237.207031 174.25 234.835938 171.222656 234.835938 C 181.597656 223.992188 192.417969 217.253906 201.621094 213.097656 C 205 211.574219 208.171875 210.398438 211.011719 209.507812 Z M 211.011719 209.507812 " fill-opacity="1" fill-rule="nonzero"/><path fill="#f7b6ad" d="M 300.636719 265.894531 C 297.421875 265.683594 295.003906 262.914062 295.214844 259.71875 L 295.847656 250.070312 C 296.058594 246.996094 298.617188 244.625 301.644531 244.625 C 301.761719 244.625 301.902344 244.648438 302.023438 244.648438 C 305.238281 244.859375 307.65625 247.628906 307.445312 250.824219 L 307.234375 253.945312 L 306.808594 260.472656 C 306.644531 262.984375 304.910156 265.023438 302.632812 265.683594 C 302.117188 265.847656 301.574219 265.917969 301.035156 265.917969 C 300.894531 265.917969 300.777344 265.894531 300.636719 265.894531 Z M 300.636719 265.894531 " fill-opacity="1" fill-rule="nonzero"/><path fill="#f7b6ad" d="M 279.132812 264.226562 C 278.59375 264.367188 278.007812 264.414062 277.421875 264.367188 C 274.226562 264.15625 271.785156 261.386719 271.996094 258.195312 L 272.46875 250.894531 L 273.171875 240.28125 C 273.382812 237.207031 275.941406 234.835938 278.96875 234.835938 C 279.085938 234.835938 279.226562 234.859375 279.34375 234.859375 C 282.5625 235.070312 284.980469 237.839844 284.769531 241.035156 L 284.460938 245.683594 L 283.617188 258.945312 C 283.429688 261.550781 281.550781 263.664062 279.132812 264.226562 Z M 279.132812 264.226562 " fill-opacity="1" fill-rule="nonzero"/><path fill="#fec4b9" d="M 313.429688 248.523438 C 316.644531 248.734375 319.0625 251.503906 318.851562 254.695312 L 318.617188 258.21875 L 318.429688 261.222656 C 318.21875 264.296875 315.660156 266.667969 312.632812 266.667969 C 312.492188 266.667969 312.375 266.644531 312.234375 266.644531 C 309.039062 266.433594 306.597656 263.6875 306.808594 260.472656 L 307.234375 253.945312 L 307.257812 253.945312 C 307.46875 250.871094 310.003906 248.5 313.03125 248.5 C 313.171875 248.5 313.289062 248.523438 313.429688 248.523438 Z M 313.429688 248.523438 " fill-opacity="1" fill-rule="nonzero"/><path fill="#fec4b9" d="M 289.039062 265.144531 C 285.824219 264.929688 283.40625 262.160156 283.617188 258.945312 L 284.460938 245.683594 L 284.484375 245.683594 C 284.671875 242.605469 287.234375 240.234375 290.261719 240.234375 C 290.402344 240.234375 290.519531 240.257812 290.660156 240.257812 C 293.851562 240.472656 296.292969 243.242188 296.082031 246.457031 L 295.847656 250.070312 L 295.214844 259.71875 C 295.027344 262.441406 293.007812 264.625 290.425781 265.070312 C 290.097656 265.144531 289.769531 265.167969 289.414062 265.167969 C 289.296875 265.167969 289.15625 265.144531 289.039062 265.144531 Z M 289.039062 265.144531 " fill-opacity="1" fill-rule="nonzero"/><path fill="#fec4b9" d="M 166.574219 258.945312 C 166.785156 262.160156 164.367188 264.929688 161.148438 265.144531 C 161.03125 265.144531 160.890625 265.167969 160.773438 265.167969 C 159.953125 265.167969 159.179688 265 158.449219 264.671875 C 156.527344 263.828125 155.117188 261.949219 154.976562 259.71875 L 154.34375 250.070312 L 154.109375 246.457031 C 153.898438 243.242188 156.339844 240.472656 159.53125 240.257812 C 159.671875 240.257812 159.789062 240.234375 159.929688 240.234375 C 162.957031 240.234375 165.515625 242.605469 165.703125 245.683594 L 165.726562 245.683594 Z M 166.574219 258.945312 " fill-opacity="1" fill-rule="nonzero"/><path fill="#f7b6ad" d="M 171.199219 234.835938 L 171.222656 234.835938 C 174.25 234.835938 176.808594 237.207031 177.019531 240.28125 L 177.722656 250.894531 L 178.191406 258.195312 C 178.402344 261.386719 175.960938 264.15625 172.769531 264.367188 C 172.136719 264.414062 171.503906 264.34375 170.914062 264.203125 C 168.566406 263.59375 166.761719 261.503906 166.574219 258.945312 L 165.726562 245.683594 L 165.421875 241.035156 C 165.210938 237.839844 167.628906 235.070312 170.84375 234.859375 C 170.960938 234.859375 171.078125 234.835938 171.199219 234.835938 Z M 171.199219 234.835938 " fill-opacity="1" fill-rule="nonzero"/><path fill="#f7b6ad" d="M 154.976562 259.71875 C 155.1875 262.914062 152.769531 265.683594 149.554688 265.894531 C 149.414062 265.894531 149.296875 265.917969 149.15625 265.917969 C 146.125 265.917969 143.589844 263.546875 143.378906 260.472656 L 142.957031 253.945312 L 142.746094 250.824219 C 142.535156 247.628906 144.953125 244.859375 148.167969 244.648438 C 148.285156 244.648438 148.425781 244.625 148.542969 244.625 C 151.574219 244.625 154.132812 246.996094 154.34375 250.070312 Z M 154.976562 259.71875 " fill-opacity="1" fill-rule="nonzero"/><path fill="#fec4b9" d="M 143.378906 260.472656 C 143.589844 263.6875 141.148438 266.433594 137.957031 266.644531 C 137.816406 266.644531 137.699219 266.667969 137.558594 266.667969 C 134.53125 266.667969 131.972656 264.296875 131.761719 261.222656 L 131.570312 258.21875 L 131.335938 254.695312 C 131.125 251.503906 133.542969 248.734375 136.761719 248.523438 C 136.902344 248.523438 137.019531 248.5 137.160156 248.5 C 140.1875 248.5 142.722656 250.871094 142.933594 253.945312 L 142.957031 253.945312 Z M 143.378906 260.472656 " fill-opacity="1" fill-rule="nonzero"/><path fill="#e15c63" d="M 284.53125 186.949219 C 286.738281 188.519531 287.257812 191.597656 285.683594 193.804688 C 284.109375 196.011719 281.035156 196.527344 278.828125 194.929688 C 276.621094 193.355469 276.105469 190.28125 277.679688 188.074219 C 279.25 185.867188 282.328125 185.351562 284.53125 186.949219 Z M 284.53125 186.949219 " fill-opacity="1" fill-rule="nonzero"/><path fill="#e15c63" d="M 269.578125 177.160156 C 271.433594 178.496094 271.878906 181.101562 270.542969 182.980469 C 269.203125 184.859375 266.597656 185.28125 264.71875 183.945312 L 249.460938 173.050781 C 247.582031 171.714844 247.160156 169.109375 248.5 167.230469 C 249.320312 166.101562 250.589844 165.492188 251.902344 165.492188 C 252.75 165.492188 253.59375 165.75 254.320312 166.265625 Z M 269.578125 177.160156 " fill-opacity="1" fill-rule="nonzero"/><path fill="#e7f2f1" d="M 292.140625 182.113281 C 296.667969 185.351562 297.5625 191.855469 294.132812 196.667969 L 291.105469 200.890625 C 287.679688 205.703125 281.222656 206.972656 276.691406 203.734375 L 250.894531 185.304688 L 238.382812 176.386719 C 233.875 173.144531 232.277344 167.300781 234.015625 162.042969 L 222.113281 153.542969 C 221.082031 152.792969 220.519531 151.597656 220.519531 150.375 C 220.519531 149.507812 220.800781 148.636719 221.339844 147.863281 C 222.675781 146.007812 225.1875 145.492188 226.949219 146.761719 L 238.851562 155.257812 C 243.289062 151.902344 249.320312 151.523438 253.828125 154.742188 L 270.800781 166.878906 Z M 285.683594 193.804688 C 287.257812 191.597656 286.738281 188.519531 284.53125 186.949219 C 282.328125 185.351562 279.25 185.867188 277.679688 188.074219 C 276.105469 190.28125 276.621094 193.355469 278.828125 194.929688 C 281.035156 196.527344 284.109375 196.011719 285.683594 193.804688 Z M 270.542969 182.980469 C 271.878906 181.101562 271.433594 178.496094 269.578125 177.160156 L 254.320312 166.265625 C 253.59375 165.75 252.75 165.492188 251.902344 165.492188 C 250.589844 165.492188 249.320312 166.101562 248.5 167.230469 C 247.160156 169.109375 247.582031 171.714844 249.460938 173.050781 L 264.71875 183.945312 C 266.597656 185.28125 269.203125 184.859375 270.542969 182.980469 Z M 270.542969 182.980469 " fill-opacity="1" fill-rule="nonzero"/><path fill="#ad6a6a" d="M 289.816406 80.140625 C 295.542969 102.394531 282.726562 122.910156 282.726562 122.910156 C 276.082031 117.699219 272.5625 110.75 270.238281 103.191406 L 270.238281 103.167969 C 274.296875 102.015625 277.351562 96.382812 275.988281 91.195312 C 276.972656 90.304688 277.609375 89.011719 277.609375 87.511719 L 277.609375 73.519531 C 277.609375 69.199219 274.8125 65.492188 270.894531 64.550781 C 265.917969 63.355469 260.941406 62.367188 255.964844 61.59375 L 255.964844 61.570312 C 250.167969 55.183594 240.894531 51.078125 225.09375 51.078125 C 209.296875 51.078125 200.023438 55.183594 194.226562 61.570312 L 194.226562 61.59375 C 189.25 62.367188 184.273438 63.355469 179.296875 64.550781 C 175.375 65.492188 172.582031 69.199219 172.582031 73.519531 L 172.582031 94.316406 C 172.582031 98.988281 175.820312 102.769531 179.90625 103.355469 C 177.558594 110.84375 174.039062 117.722656 167.464844 122.910156 C 167.464844 122.910156 159.109375 110.046875 158.144531 95.375 C 157.417969 84.175781 160.46875 68.425781 168.757812 54.480469 C 172.089844 48.894531 176.246094 43.613281 181.316406 39.011719 C 199.109375 22.90625 225.398438 20.675781 239.179688 6.523438 C 239.226562 12.296875 238.5 17.71875 235.332031 21.992188 C 239.132812 17.015625 243.359375 13.117188 248.570312 12.226562 C 248.570312 12.226562 250.871094 24.550781 255.613281 33.472656 C 258.476562 38.847656 267.75 44.667969 276.199219 54.503906 C 281.785156 60.984375 286.996094 69.175781 289.816406 80.140625 Z M 289.816406 80.140625 " fill-opacity="1" fill-rule="nonzero"/><path fill="#20bab6" d="M 179.90625 103.355469 C 175.820312 102.769531 172.582031 98.988281 172.582031 94.316406 L 172.582031 73.519531 C 172.582031 69.199219 175.375 65.492188 179.296875 64.550781 C 184.273438 63.355469 189.25 62.367188 194.226562 61.59375 C 214.8125 58.238281 235.378906 58.238281 255.964844 61.59375 C 260.941406 62.367188 265.917969 63.355469 270.894531 64.550781 C 274.8125 65.492188 277.609375 69.199219 277.609375 73.519531 L 277.609375 87.511719 C 277.609375 89.011719 276.972656 90.304688 275.988281 91.195312 C 277.351562 96.382812 274.296875 102.015625 270.238281 103.167969 L 270.238281 103.191406 C 269.460938 103.402344 268.664062 103.472656 267.84375 103.332031 C 260.074219 102.039062 252.300781 101.101562 244.507812 100.539062 C 231.574219 99.550781 218.617188 99.550781 205.679688 100.539062 C 197.886719 101.101562 190.117188 102.039062 182.347656 103.332031 C 181.503906 103.472656 180.679688 103.472656 179.90625 103.355469 Z M 179.90625 103.355469 " fill-opacity="1" fill-rule="nonzero"/><path fill="#f7b6ad" d="M 239.179688 190.75 L 239.179688 201.691406 C 222.160156 205.1875 211.011719 197.746094 211.011719 197.746094 L 211.011719 190.75 C 215.492188 192.230469 220.234375 193.097656 225.09375 193.097656 C 229.953125 193.097656 234.671875 192.230469 239.179688 190.75 Z M 239.179688 190.75 " fill-opacity="1" fill-rule="nonzero"/><path fill="#b8d3cf" d="M 299.34375 122.910156 C 299.34375 122.910156 307.703125 132.300781 301.339844 149.953125 C 294.957031 167.582031 277.609375 171.738281 277.609375 171.738281 L 270.800781 166.878906 C 271.246094 166.21875 271.667969 165.5625 272.042969 164.929688 C 273.570312 162.394531 274.980469 159.179688 276.269531 155.445312 C 282.609375 156.21875 289.203125 151.691406 291.949219 144.226562 C 295.121094 135.609375 291.925781 126.335938 284.816406 123.496094 C 284.132812 123.238281 283.429688 123.050781 282.726562 122.910156 C 282.726562 122.910156 295.542969 102.394531 289.816406 80.140625 C 286.996094 69.175781 281.785156 60.984375 276.199219 54.503906 L 276.222656 54.480469 C 276.222656 54.480469 282.609375 54.832031 291.292969 55.726562 C 291.292969 55.726562 309.722656 83.566406 299.34375 122.910156 Z M 299.34375 122.910156 " fill-opacity="1" fill-rule="nonzero"/><path fill="#b8d3cf" d="M 296.222656 190.9375 C 296.222656 190.9375 303.710938 193.6875 296.808594 203.992188 C 293.242188 209.296875 288.617188 211.246094 284.015625 211.457031 C 274.839844 211.902344 265.824219 205.515625 265.824219 205.515625 L 243.289062 189.203125 C 245.941406 188.097656 248.476562 186.761719 250.894531 185.304688 L 276.691406 203.734375 C 281.222656 206.972656 287.679688 205.703125 291.105469 200.890625 L 294.132812 196.667969 C 295.402344 194.90625 296.058594 192.910156 296.199219 190.9375 Z M 296.222656 190.9375 " fill-opacity="1" fill-rule="nonzero"/><path fill="#3a322b" d="M 253.265625 122.683594 C 253.265625 122.992188 253.234375 123.296875 253.175781 123.601562 C 253.113281 123.902344 253.023438 124.195312 252.90625 124.480469 C 252.789062 124.765625 252.644531 125.035156 252.472656 125.292969 C 252.300781 125.550781 252.109375 125.785156 251.890625 126.003906 C 251.671875 126.222656 251.433594 126.417969 251.179688 126.589844 C 250.921875 126.757812 250.652344 126.902344 250.367188 127.023438 C 250.082031 127.140625 249.789062 127.230469 249.484375 127.289062 C 249.183594 127.347656 248.878906 127.378906 248.570312 127.378906 C 248.261719 127.378906 247.957031 127.347656 247.652344 127.289062 C 247.351562 127.230469 247.058594 127.140625 246.773438 127.023438 C 246.488281 126.902344 246.21875 126.757812 245.960938 126.589844 C 245.707031 126.417969 245.46875 126.222656 245.25 126.003906 C 245.03125 125.785156 244.835938 125.550781 244.667969 125.292969 C 244.496094 125.035156 244.351562 124.765625 244.230469 124.480469 C 244.113281 124.195312 244.023438 123.902344 243.964844 123.601562 C 243.90625 123.296875 243.875 122.992188 243.875 122.683594 C 243.875 122.375 243.90625 122.070312 243.964844 121.769531 C 244.023438 121.464844 244.113281 121.171875 244.230469 120.886719 C 244.351562 120.601562 244.496094 120.332031 244.667969 120.074219 C 244.835938 119.820312 245.03125 119.582031 245.25 119.363281 C 245.46875 119.148438 245.707031 118.953125 245.960938 118.78125 C 246.21875 118.609375 246.488281 118.464844 246.773438 118.347656 C 247.058594 118.230469 247.351562 118.140625 247.652344 118.078125 C 247.957031 118.019531 248.261719 117.988281 248.570312 117.988281 C 248.878906 117.988281 249.183594 118.019531 249.484375 118.078125 C 249.789062 118.140625 250.082031 118.230469 250.367188 118.347656 C 250.652344 118.464844 250.921875 118.609375 251.179688 118.78125 C 251.433594 118.953125 251.671875 119.148438 251.890625 119.363281 C 252.109375 119.582031 252.300781 119.820312 252.472656 120.074219 C 252.644531 120.332031 252.789062 120.601562 252.90625 120.886719 C 253.023438 121.171875 253.113281 121.464844 253.175781 121.769531 C 253.234375 122.070312 253.265625 122.375 253.265625 122.683594 Z M 253.265625 122.683594 " fill-opacity="1" fill-rule="nonzero"/><path fill="#3a322b" d="M 206.316406 122.683594 C 206.316406 122.992188 206.285156 123.296875 206.226562 123.601562 C 206.164062 123.902344 206.074219 124.195312 205.957031 124.480469 C 205.839844 124.765625 205.695312 125.035156 205.523438 125.292969 C 205.351562 125.550781 205.160156 125.785156 204.941406 126.003906 C 204.722656 126.222656 204.484375 126.417969 204.230469 126.589844 C 203.972656 126.757812 203.703125 126.902344 203.417969 127.023438 C 203.132812 127.140625 202.839844 127.230469 202.535156 127.289062 C 202.234375 127.347656 201.929688 127.378906 201.621094 127.378906 C 201.3125 127.378906 201.007812 127.347656 200.703125 127.289062 C 200.402344 127.230469 200.109375 127.140625 199.824219 127.023438 C 199.539062 126.902344 199.269531 126.757812 199.011719 126.589844 C 198.753906 126.417969 198.519531 126.222656 198.300781 126.003906 C 198.082031 125.785156 197.886719 125.550781 197.71875 125.292969 C 197.546875 125.035156 197.402344 124.765625 197.28125 124.480469 C 197.164062 124.195312 197.074219 123.902344 197.015625 123.601562 C 196.957031 123.296875 196.925781 122.992188 196.925781 122.683594 C 196.925781 122.375 196.957031 122.070312 197.015625 121.769531 C 197.074219 121.464844 197.164062 121.171875 197.28125 120.886719 C 197.402344 120.601562 197.546875 120.332031 197.71875 120.074219 C 197.886719 119.820312 198.082031 119.582031 198.300781 119.363281 C 198.519531 119.148438 198.753906 118.953125 199.011719 118.78125 C 199.269531 118.609375 199.539062 118.464844 199.824219 118.347656 C 200.109375 118.230469 200.402344 118.140625 200.703125 118.078125 C 201.007812 118.019531 201.3125 117.988281 201.621094 117.988281 C 201.929688 117.988281 202.234375 118.019531 202.535156 118.078125 C 202.839844 118.140625 203.132812 118.230469 203.417969 118.347656 C 203.703125 118.464844 203.972656 118.609375 204.230469 118.78125 C 204.484375 118.953125 204.722656 119.148438 204.941406 119.363281 C 205.160156 119.582031 205.351562 119.820312 205.523438 120.074219 C 205.695312 120.332031 205.839844 120.601562 205.957031 120.886719 C 206.074219 121.171875 206.164062 121.464844 206.226562 121.769531 C 206.285156 122.070312 206.316406 122.375 206.316406 122.683594 Z M 206.316406 122.683594 " fill-opacity="1" fill-rule="nonzero"/><path fill="#3a322b" d="M 270.933594 175.257812 L 255.675781 164.355469 C 252.753906 162.269531 248.679688 162.949219 246.589844 165.875 C 244.5 168.796875 245.179688 172.871094 248.105469 174.960938 L 263.363281 185.859375 C 264.507812 186.675781 265.832031 187.070312 267.140625 187.070312 C 269.175781 187.070312 271.183594 186.121094 272.453125 184.34375 C 274.539062 181.421875 273.855469 177.34375 270.933594 175.257812 Z M 268.628906 181.613281 C 268.046875 182.429688 266.902344 182.621094 266.089844 182.039062 L 250.832031 171.136719 C 250.4375 170.855469 250.171875 170.4375 250.09375 169.957031 C 250.011719 169.480469 250.125 168.996094 250.40625 168.601562 C 250.761719 168.105469 251.324219 167.839844 251.890625 167.839844 C 252.257812 167.839844 252.625 167.949219 252.945312 168.179688 L 268.203125 179.078125 C 269.019531 179.660156 269.214844 180.796875 268.628906 181.613281 Z M 268.628906 181.613281 " fill-opacity="1" fill-rule="nonzero"/><path fill="#3a322b" d="M 287.589844 195.160156 C 288.71875 193.582031 289.164062 191.65625 288.847656 189.746094 C 288.527344 187.832031 287.484375 186.15625 285.90625 185.027344 C 284.328125 183.902344 282.402344 183.460938 280.492188 183.773438 C 278.578125 184.09375 276.902344 185.140625 275.773438 186.71875 C 273.449219 189.976562 274.207031 194.523438 277.464844 196.851562 C 278.742188 197.761719 280.214844 198.199219 281.675781 198.199219 C 283.941406 198.199219 286.179688 197.140625 287.589844 195.160156 Z M 279.59375 189.445312 C 279.992188 188.886719 280.585938 188.515625 281.261719 188.402344 C 281.402344 188.378906 281.546875 188.367188 281.6875 188.367188 C 282.21875 188.367188 282.734375 188.53125 283.171875 188.847656 C 283.734375 189.246094 284.101562 189.839844 284.214844 190.515625 C 284.328125 191.191406 284.167969 191.871094 283.769531 192.429688 C 282.949219 193.582031 281.339844 193.851562 280.191406 193.027344 C 279.039062 192.203125 278.769531 190.597656 279.59375 189.445312 Z M 279.59375 189.445312 " fill-opacity="1" fill-rule="nonzero"/><path fill="#3a322b" d="M 188.863281 146.582031 C 189.339844 146.582031 189.828125 146.433594 190.242188 146.132812 C 191.289062 145.367188 191.519531 143.898438 190.757812 142.851562 L 183.6875 133.160156 C 182.925781 132.113281 181.457031 131.886719 180.410156 132.648438 C 179.363281 133.414062 179.132812 134.878906 179.894531 135.925781 L 186.964844 145.617188 C 187.421875 146.25 188.136719 146.582031 188.863281 146.582031 Z M 188.863281 146.582031 " fill-opacity="1" fill-rule="nonzero"/><path fill="#3a322b" d="M 198.15625 145.617188 C 198.617188 146.25 199.332031 146.582031 200.058594 146.582031 C 200.535156 146.582031 201.023438 146.433594 201.4375 146.132812 C 202.484375 145.367188 202.714844 143.898438 201.953125 142.851562 L 194.882812 133.160156 C 194.121094 132.113281 192.652344 131.886719 191.605469 132.648438 C 190.558594 133.414062 190.328125 134.878906 191.089844 135.925781 Z M 198.15625 145.617188 " fill-opacity="1" fill-rule="nonzero"/><path fill="#3a322b" d="M 202.800781 132.644531 C 201.753906 133.410156 201.523438 134.878906 202.285156 135.925781 L 209.351562 145.613281 C 209.8125 146.246094 210.527344 146.578125 211.253906 146.578125 C 211.730469 146.578125 212.21875 146.429688 212.632812 146.128906 C 213.679688 145.363281 213.910156 143.894531 213.148438 142.847656 L 206.082031 133.160156 C 205.316406 132.113281 203.847656 131.882812 202.800781 132.644531 Z M 202.800781 132.644531 " fill-opacity="1" fill-rule="nonzero"/><path fill="#3a322b" d="M 244.25 145.617188 C 244.710938 146.25 245.425781 146.582031 246.148438 146.582031 C 246.628906 146.582031 247.113281 146.433594 247.53125 146.132812 C 248.578125 145.367188 248.808594 143.898438 248.042969 142.851562 L 240.976562 133.160156 C 240.210938 132.113281 238.742188 131.886719 237.695312 132.648438 C 236.648438 133.414062 236.417969 134.878906 237.183594 135.925781 Z M 244.25 145.617188 " fill-opacity="1" fill-rule="nonzero"/><path fill="#3a322b" d="M 248.890625 132.644531 C 247.84375 133.410156 247.613281 134.878906 248.378906 135.925781 L 255.445312 145.613281 C 255.90625 146.246094 256.621094 146.578125 257.34375 146.578125 C 257.824219 146.578125 258.308594 146.429688 258.726562 146.128906 C 259.773438 145.363281 260 143.894531 259.238281 142.847656 L 252.171875 133.160156 C 251.40625 132.113281 249.941406 131.882812 248.890625 132.644531 Z M 248.890625 132.644531 " fill-opacity="1" fill-rule="nonzero"/><path fill="#3a322b" d="M 266.644531 145.617188 C 267.101562 146.25 267.816406 146.582031 268.542969 146.582031 C 269.019531 146.582031 269.507812 146.433594 269.921875 146.132812 C 270.96875 145.367188 271.199219 143.898438 270.4375 142.851562 L 263.367188 133.160156 C 262.605469 132.113281 261.136719 131.886719 260.089844 132.648438 C 259.042969 133.414062 258.8125 134.878906 259.574219 135.925781 Z M 266.644531 145.617188 " fill-opacity="1" fill-rule="nonzero"/><path fill="#3a322b" d="M 188.265625 185.953125 C 179.484375 181.179688 172.96875 174.097656 168.902344 164.902344 C 168.378906 163.714844 166.992188 163.179688 165.808594 163.703125 C 164.621094 164.230469 164.085938 165.613281 164.609375 166.800781 C 169.109375 176.96875 176.308594 184.796875 186.023438 190.078125 C 186.378906 190.273438 186.761719 190.363281 187.144531 190.363281 C 187.976562 190.363281 188.78125 189.921875 189.207031 189.140625 C 189.828125 187.996094 189.40625 186.570312 188.265625 185.953125 Z M 188.265625 185.953125 " fill-opacity="1" fill-rule="nonzero"/><path fill="#3a322b" d="M 177.367188 191.070312 C 172.363281 188.203125 168.203125 183.667969 164.996094 177.589844 C 164.394531 176.445312 162.972656 176.007812 161.828125 176.609375 C 160.679688 177.214844 160.238281 178.632812 160.84375 179.78125 C 164.46875 186.664062 169.246094 191.832031 175.039062 195.144531 C 175.402344 195.355469 175.804688 195.457031 176.203125 195.457031 C 177.015625 195.457031 177.808594 195.03125 178.242188 194.273438 C 178.882812 193.148438 178.492188 191.714844 177.367188 191.070312 Z M 177.367188 191.070312 " fill-opacity="1" fill-rule="nonzero"/><path fill="#3a322b" d="M 290.976562 119.394531 C 290.417969 120.5625 290.914062 121.964844 292.085938 122.523438 C 292.410156 122.675781 292.757812 122.753906 293.09375 122.753906 C 293.96875 122.753906 294.808594 122.257812 295.214844 121.417969 C 300.226562 110.917969 302.351562 99.691406 301.523438 88.050781 C 301.433594 86.757812 300.359375 85.804688 299.015625 85.875 C 297.722656 85.964844 296.75 87.085938 296.839844 88.382812 C 297.609375 99.199219 295.632812 109.636719 290.976562 119.394531 Z M 290.976562 119.394531 " fill-opacity="1" fill-rule="nonzero"/><path fill="#3a322b" d="M 303.574219 118.09375 C 303.839844 118.1875 304.109375 118.234375 304.375 118.234375 C 305.332031 118.234375 306.234375 117.640625 306.582031 116.683594 C 309.351562 109.015625 310.574219 101.234375 310.222656 93.546875 C 310.164062 92.25 309.035156 91.25 307.769531 91.3125 C 306.476562 91.371094 305.472656 92.46875 305.535156 93.765625 C 305.855469 100.828125 304.726562 108.003906 302.164062 115.085938 C 301.722656 116.304688 302.355469 117.652344 303.574219 118.09375 Z M 303.574219 118.09375 " fill-opacity="1" fill-rule="nonzero"/><path fill="#3a322b" d="M 372.238281 295.890625 C 366.179688 290.257812 361.847656 285.414062 358.964844 278.671875 C 355.363281 270.238281 348.535156 263.957031 340.234375 261.4375 C 334.269531 259.625 327.828125 257.933594 321.097656 256.382812 L 321.199219 254.855469 C 321.34375 252.679688 320.628906 250.578125 319.191406 248.9375 C 317.753906 247.300781 315.765625 246.316406 313.589844 246.175781 C 311.992188 246.066406 310.453125 246.433594 309.097656 247.1875 C 308.765625 246.433594 308.351562 245.707031 307.792969 245.070312 C 306.355469 243.429688 304.363281 242.449219 302.1875 242.304688 C 300.675781 242.207031 299.222656 242.546875 297.917969 243.222656 C 296.824219 240.308594 294.121094 238.140625 290.820312 237.925781 C 289.441406 237.835938 288.097656 238.128906 286.871094 238.695312 C 286.5625 237.449219 285.992188 236.277344 285.121094 235.28125 C 283.816406 233.792969 282.042969 232.882812 280.097656 232.613281 C 272.890625 225.210938 265.519531 219.726562 258.664062 215.695312 C 261.578125 215.742188 264.949219 215.773438 268.625 215.773438 C 291.808594 215.773438 326.902344 214.496094 333.476562 207.011719 C 342.800781 196.394531 348.488281 78.328125 340.234375 66.644531 C 332.773438 56.074219 286.308594 52.746094 277.347656 52.199219 C 273.496094 47.84375 269.519531 44.265625 266.046875 41.148438 C 262.28125 37.769531 259.027344 34.847656 257.703125 32.371094 C 253.171875 23.890625 250.90625 11.90625 250.886719 11.789062 C 250.648438 10.519531 249.449219 9.675781 248.171875 9.90625 C 245.566406 10.359375 243.242188 11.449219 241.195312 12.847656 C 241.492188 10.628906 241.554688 8.464844 241.539062 6.507812 C 241.535156 5.554688 240.953125 4.699219 240.070312 4.347656 C 239.1875 3.992188 238.175781 4.199219 237.511719 4.886719 C 231.011719 11.558594 221.351562 15.546875 211.125 19.761719 C 200.257812 24.246094 189.015625 28.882812 179.738281 37.273438 C 174.84375 41.703125 170.785156 46.8125 167.457031 52.21875 C 158.734375 52.820312 117.355469 56.191406 109.972656 66.648438 C 101.71875 78.332031 107.40625 196.394531 116.730469 207.011719 C 123.308594 214.5 158.398438 215.777344 181.582031 215.777344 C 185.253906 215.777344 188.617188 215.742188 191.53125 215.699219 C 184.675781 219.730469 177.308594 225.210938 170.097656 232.617188 C 168.15625 232.886719 166.386719 233.796875 165.082031 235.285156 C 164.210938 236.277344 163.640625 237.453125 163.332031 238.699219 C 162.109375 238.136719 160.769531 237.847656 159.382812 237.929688 C 156.078125 238.144531 153.371094 240.3125 152.28125 243.230469 C 150.980469 242.558594 149.523438 242.222656 148.015625 242.3125 C 145.835938 242.453125 143.847656 243.4375 142.410156 245.074219 C 141.847656 245.714844 141.433594 246.4375 141.101562 247.195312 C 139.75 246.445312 138.210938 246.085938 136.609375 246.179688 C 134.433594 246.324219 132.445312 247.304688 131.007812 248.941406 C 129.570312 250.582031 128.855469 252.683594 129 254.859375 L 129.097656 256.390625 C 122.367188 257.9375 115.929688 259.628906 109.960938 261.441406 C 101.660156 263.960938 94.832031 270.242188 91.230469 278.675781 C 88.347656 285.421875 84.015625 290.265625 77.960938 295.894531 C 77.011719 296.777344 76.957031 298.261719 77.839844 299.214844 C 78.296875 299.703125 78.921875 299.957031 79.550781 299.957031 C 80.125 299.957031 80.699219 299.75 81.152344 299.328125 C 87.65625 293.273438 92.335938 288.019531 95.539062 280.515625 C 98.597656 273.359375 104.347656 268.042969 111.320312 265.925781 C 116.964844 264.214844 123.046875 262.605469 129.402344 261.128906 L 129.417969 261.382812 C 129.703125 265.691406 133.300781 269.011719 137.5625 269.011719 C 137.742188 269.011719 137.917969 269.007812 138.101562 268.996094 C 140.371094 268.84375 142.359375 267.773438 143.742188 266.171875 C 143.761719 266.191406 143.773438 266.210938 143.789062 266.226562 C 145.292969 267.542969 147.183594 268.25 149.164062 268.25 C 149.34375 268.25 149.527344 268.246094 149.707031 268.234375 C 151.984375 268.085938 153.976562 267.007812 155.355469 265.402344 C 155.652344 265.667969 155.964844 265.914062 156.296875 266.132812 C 157.382812 272.890625 157.363281 278.988281 156.167969 284.6875 C 155.898438 285.957031 156.710938 287.203125 157.980469 287.46875 C 158.144531 287.503906 158.308594 287.515625 158.46875 287.515625 C 159.554688 287.515625 160.53125 286.757812 160.761719 285.652344 C 161.9375 280.070312 162.042969 273.953125 161.214844 267.476562 C 161.25 267.472656 161.285156 267.476562 161.320312 267.472656 C 163.59375 267.324219 165.585938 266.25 166.96875 264.644531 C 167.519531 265.136719 168.144531 265.535156 168.808594 265.863281 C 169.328125 268.929688 169.285156 272.019531 168.617188 275.078125 C 168.339844 276.34375 169.144531 277.597656 170.410156 277.871094 C 170.578125 277.90625 170.75 277.925781 170.914062 277.925781 C 171.992188 277.925781 172.964844 277.175781 173.203125 276.078125 C 173.890625 272.929688 174.042969 269.75 173.679688 266.585938 C 177.785156 265.921875 180.816406 262.261719 180.539062 258.03125 L 180.210938 253.035156 C 209.316406 250.269531 240.886719 250.269531 269.992188 253.035156 L 269.664062 258.03125 C 269.386719 262.253906 272.410156 265.914062 276.507812 266.582031 C 275.742188 273.273438 275.992188 280.027344 277.375 286.699219 C 277.601562 287.808594 278.578125 288.570312 279.667969 288.570312 C 279.828125 288.570312 279.984375 288.554688 280.148438 288.519531 C 281.417969 288.257812 282.234375 287.015625 281.96875 285.746094 C 280.605469 279.160156 280.410156 272.496094 281.300781 265.90625 C 282.003906 265.570312 282.65625 265.15625 283.234375 264.640625 C 284.464844 266.074219 286.199219 267.046875 288.175781 267.355469 C 288.664062 278.632812 292.242188 289.351562 298.914062 299.234375 C 299.367188 299.902344 300.109375 300.265625 300.863281 300.265625 C 301.316406 300.265625 301.773438 300.136719 302.175781 299.863281 C 303.25 299.136719 303.535156 297.679688 302.808594 296.605469 C 296.539062 287.324219 293.214844 277.265625 292.84375 266.703125 C 293.570312 266.359375 294.246094 265.929688 294.839844 265.402344 C 296.222656 267.007812 298.214844 268.085938 300.488281 268.234375 C 300.558594 268.238281 300.628906 268.238281 300.703125 268.242188 C 302.261719 276.765625 305.90625 284.003906 311.609375 289.75 C 312.070312 290.214844 312.675781 290.445312 313.277344 290.445312 C 313.875 290.445312 314.472656 290.214844 314.933594 289.761719 C 315.851562 288.851562 315.859375 287.363281 314.945312 286.441406 C 309.773438 281.234375 306.613281 274.867188 305.257812 267.0625 C 305.660156 266.820312 306.046875 266.542969 306.40625 266.226562 C 306.425781 266.207031 306.4375 266.191406 306.457031 266.171875 C 307.835938 267.773438 309.828125 268.84375 312.097656 268.996094 C 312.277344 269.007812 312.457031 269.011719 312.632812 269.011719 C 316.894531 269.011719 320.492188 265.691406 320.777344 261.378906 L 320.792969 261.128906 C 327.144531 262.605469 333.230469 264.207031 338.875 265.925781 C 345.847656 268.039062 351.59375 273.359375 354.652344 280.511719 C 357.859375 288.015625 362.535156 293.273438 369.042969 299.324219 C 369.496094 299.746094 370.070312 299.953125 370.644531 299.953125 C 371.273438 299.953125 371.898438 299.703125 372.359375 299.203125 C 373.238281 298.257812 373.1875 296.773438 372.238281 295.890625 Z M 336.390625 69.351562 C 343.371094 79.238281 337.824219 194.933594 329.9375 203.910156 C 323.980469 210.691406 277.386719 211.722656 249.089844 210.773438 C 246.386719 209.574219 243.847656 208.597656 241.523438 207.804688 L 241.527344 192.402344 C 244.632812 191.273438 247.71875 189.824219 250.753906 188.09375 L 275.339844 205.652344 C 277.390625 207.117188 279.804688 207.878906 282.3125 207.878906 C 283.125 207.878906 283.949219 207.796875 284.773438 207.632812 C 288.085938 206.980469 291.015625 205.074219 293.019531 202.261719 L 296.046875 198.023438 C 300.222656 192.175781 299.085938 184.179688 293.511719 180.199219 L 273.984375 166.253906 C 274.007812 166.21875 274.035156 166.183594 274.054688 166.144531 C 275.421875 163.867188 276.707031 161.074219 277.894531 157.871094 C 284.808594 157.773438 291.316406 152.746094 294.148438 145.042969 C 297.675781 135.449219 294.09375 125.058594 286.179688 121.550781 C 289.484375 115.191406 296.867188 98.097656 292.101562 79.546875 C 289.746094 70.386719 285.808594 63.136719 281.378906 57.179688 C 302.238281 58.734375 331.898438 62.988281 336.390625 69.351562 Z M 170.652344 152.957031 C 166.34375 152.113281 162.320312 148.507812 160.449219 143.425781 C 157.851562 136.359375 160.113281 128.867188 165.441406 126.125 C 166.589844 136.304688 168.386719 145.46875 170.652344 152.957031 Z M 169.921875 123.890625 C 175.109375 119.476562 178.855469 113.640625 181.574219 105.734375 C 181.957031 105.71875 182.339844 105.707031 182.726562 105.640625 C 189.039062 104.597656 195.371094 103.820312 201.714844 103.246094 C 199.734375 106.113281 196.777344 107.722656 192.757812 108.125 C 191.464844 108.253906 190.523438 109.398438 190.652344 110.691406 C 190.773438 111.902344 191.792969 112.804688 192.988281 112.804688 C 193.0625 112.804688 193.140625 112.804688 193.222656 112.792969 C 199.996094 112.125 204.691406 108.746094 207.261719 102.8125 C 219.140625 101.992188 231.050781 101.992188 242.929688 102.8125 C 245.5 108.746094 250.195312 112.125 256.972656 112.792969 C 257.050781 112.800781 257.128906 112.804688 257.207031 112.804688 C 258.398438 112.804688 259.417969 111.902344 259.539062 110.691406 C 259.667969 109.402344 258.726562 108.253906 257.4375 108.125 C 253.414062 107.722656 250.457031 106.113281 248.476562 103.246094 C 254.820312 103.820312 261.15625 104.597656 267.46875 105.640625 C 267.851562 105.707031 268.238281 105.734375 268.625 105.742188 C 271.34375 113.644531 275.089844 119.484375 280.269531 123.890625 C 278.472656 141.042969 274.71875 155.761719 270.15625 163.519531 L 255.203125 152.84375 C 250.417969 149.425781 244.0625 149.3125 238.902344 152.40625 L 228.328125 144.855469 C 225.507812 142.84375 221.523438 143.582031 219.433594 146.507812 C 217.347656 149.429688 217.9375 153.445312 220.753906 155.460938 L 231.328125 163.011719 C 230.070312 168.898438 232.246094 174.875 237.03125 178.292969 L 246.535156 185.078125 C 239.414062 188.800781 232.066406 190.757812 225.09375 190.757812 C 204.171875 190.757812 186.429688 174.179688 180.15625 163.726562 C 175.539062 156.027344 171.738281 141.191406 169.921875 123.890625 Z M 225.09375 61.445312 C 240.214844 61.445312 255.335938 63.246094 270.347656 66.84375 C 273.199219 67.527344 275.265625 70.328125 275.265625 73.507812 L 275.265625 87.507812 C 275.265625 88.222656 274.992188 88.890625 274.5 89.386719 C 274.429688 89.445312 274.363281 89.503906 274.300781 89.570312 C 274.273438 89.59375 274.242188 89.617188 274.210938 89.640625 C 273.550781 90.140625 272.714844 90.308594 271.917969 90.085938 C 263.769531 87.835938 246.851562 84.0625 225.09375 84.0625 C 193.398438 84.0625 180.003906 91.128906 179.445312 91.429688 C 178.308594 92.046875 177.886719 93.464844 178.5 94.605469 C 179.117188 95.742188 180.539062 96.167969 181.675781 95.5625 C 181.804688 95.492188 194.78125 88.757812 225.09375 88.757812 C 246.296875 88.757812 262.75 92.425781 270.667969 94.609375 C 271.746094 94.90625 272.851562 94.957031 273.910156 94.765625 C 273.683594 96.644531 272.839844 98.332031 271.847656 99.421875 C 271.203125 100.132812 269.871094 101.269531 268.230469 101.011719 C 260.472656 99.726562 252.683594 98.820312 244.882812 98.230469 C 244.738281 98.207031 244.597656 98.199219 244.449219 98.203125 C 231.558594 97.253906 218.636719 97.253906 205.742188 98.203125 C 205.59375 98.199219 205.449219 98.203125 205.304688 98.230469 C 197.503906 98.820312 189.714844 99.722656 181.957031 101.011719 C 180.300781 101.28125 178.652344 100.816406 177.320312 99.6875 C 175.796875 98.394531 174.921875 96.4375 174.921875 94.316406 L 174.921875 73.507812 C 174.921875 70.328125 176.992188 67.527344 179.839844 66.84375 C 194.855469 63.246094 209.976562 61.445312 225.09375 61.445312 Z M 202.617188 58.054688 C 208.289062 54.980469 215.695312 53.433594 225.09375 53.433594 C 234.496094 53.433594 241.902344 54.980469 247.578125 58.054688 C 232.605469 56.328125 217.585938 56.328125 202.617188 58.054688 Z M 252.285156 183.414062 C 252.285156 183.414062 252.285156 183.410156 252.28125 183.410156 L 239.757812 174.464844 C 236.195312 171.921875 234.78125 167.226562 236.246094 162.777344 C 236.570312 161.800781 236.21875 160.726562 235.382812 160.132812 L 223.484375 151.632812 C 222.773438 151.125 222.671875 150.050781 223.253906 149.230469 C 223.628906 148.703125 224.207031 148.40625 224.761719 148.40625 C 225.058594 148.40625 225.347656 148.492188 225.597656 148.671875 L 237.5 157.171875 C 238.332031 157.765625 239.460938 157.75 240.28125 157.132812 C 244.011719 154.300781 248.910156 154.113281 252.476562 156.660156 L 290.789062 184.019531 C 294.257812 186.496094 294.902344 191.554688 292.230469 195.296875 L 289.203125 199.535156 C 287.894531 201.367188 286 202.609375 283.867188 203.027344 C 281.789062 203.441406 279.730469 203.011719 278.070312 201.828125 Z M 284.75 126.125 C 290.074219 128.863281 292.339844 136.355469 289.742188 143.425781 C 287.871094 148.507812 283.84375 152.109375 279.539062 152.953125 C 281.804688 145.464844 283.597656 136.304688 284.75 126.125 Z M 213.359375 193.878906 C 217.128906 194.867188 221.054688 195.457031 225.09375 195.457031 C 228.945312 195.457031 232.882812 194.894531 236.832031 193.859375 L 236.828125 209.503906 L 236.835938 209.503906 C 236.8125 210.382812 236.257812 223.515625 225.09375 223.515625 C 213.851562 223.515625 213.367188 210.023438 213.351562 209.453125 Z M 182.886719 40.753906 C 191.558594 32.910156 202.410156 28.429688 212.910156 24.101562 C 221.605469 20.519531 229.902344 17.09375 236.558594 11.976562 C 236.105469 15.621094 235.09375 18.382812 233.441406 20.597656 C 232.667969 21.632812 232.878906 23.09375 233.90625 23.875 C 234.9375 24.65625 236.402344 24.453125 237.1875 23.429688 C 240.535156 19.050781 243.636719 16.363281 246.789062 15.140625 C 247.726562 19.296875 249.9375 27.808594 253.554688 34.585938 C 255.265625 37.792969 258.636719 40.816406 262.902344 44.644531 C 271.339844 52.21875 282.898438 62.585938 287.550781 80.71875 C 291.84375 97.429688 285.074219 113.328125 282.066406 119.230469 C 278.179688 115.542969 275.339844 110.8125 273.125 104.417969 C 273.902344 103.929688 274.644531 103.324219 275.320312 102.582031 C 277.894531 99.75 279.085938 95.679688 278.519531 91.898438 C 279.449219 90.644531 279.960938 89.121094 279.960938 87.503906 L 279.960938 73.507812 C 279.960938 68.097656 276.457031 63.476562 271.441406 62.273438 C 266.671875 61.132812 261.890625 60.1875 257.101562 59.398438 C 250.191406 52.25 239.726562 48.742188 225.09375 48.742188 C 210.464844 48.742188 200 52.25 193.089844 59.402344 C 188.300781 60.191406 183.515625 61.132812 178.746094 62.277344 C 173.730469 63.480469 170.226562 68.097656 170.226562 73.507812 L 170.226562 94.316406 C 170.226562 97.820312 171.707031 101.082031 174.285156 103.269531 C 175.085938 103.945312 175.980469 104.460938 176.910156 104.871094 C 174.71875 111 171.855469 115.683594 168.058594 119.285156 C 165.726562 115.035156 161.167969 105.546875 160.484375 95.222656 C 159.457031 79.679688 166.027344 56.003906 182.886719 40.753906 Z M 120.253906 203.910156 C 112.367188 194.933594 106.816406 79.238281 113.800781 69.351562 C 118.335938 62.921875 145.789062 58.644531 164.667969 57.132812 C 157.804688 70.375 155.085938 84.769531 155.796875 95.53125 C 156.542969 106.835938 161.40625 116.972656 163.949219 121.578125 C 156.074219 125.113281 152.519531 135.476562 156.039062 145.042969 C 158.871094 152.746094 165.375 157.773438 172.292969 157.871094 C 173.480469 161.074219 174.765625 163.867188 176.132812 166.144531 C 181.222656 174.625 193.316406 186.828125 208.660156 192.429688 L 208.65625 207.808594 C 206.332031 208.597656 203.792969 209.574219 201.089844 210.777344 C 172.789062 211.722656 126.207031 210.691406 120.253906 203.910156 Z M 137.792969 264.3125 C 135.867188 264.441406 134.230469 262.984375 134.105469 261.078125 L 133.679688 254.546875 C 133.617188 253.625 133.917969 252.730469 134.53125 252.035156 C 135.140625 251.335938 135.984375 250.917969 136.910156 250.859375 C 137.835938 250.789062 138.726562 251.101562 139.425781 251.714844 C 140.121094 252.324219 140.539062 253.167969 140.597656 254.09375 L 141.027344 260.625 C 141.152344 262.53125 139.703125 264.1875 137.792969 264.3125 Z M 149.398438 263.550781 C 147.46875 263.671875 145.835938 262.226562 145.714844 260.316406 L 145.285156 253.789062 C 145.285156 253.789062 145.285156 253.785156 145.285156 253.785156 L 145.082031 250.679688 C 145.019531 249.753906 145.324219 248.863281 145.933594 248.164062 C 146.542969 247.46875 147.390625 247.050781 148.316406 246.992188 C 150.210938 246.84375 151.878906 248.320312 152.003906 250.226562 L 152.632812 259.863281 C 152.761719 261.773438 151.308594 263.425781 149.398438 263.550781 Z M 161.007812 262.789062 C 159.066406 262.925781 157.445312 261.464844 157.320312 259.554688 L 156.453125 246.296875 C 156.328125 244.390625 157.777344 242.734375 159.6875 242.613281 C 160.625 242.554688 161.503906 242.851562 162.199219 243.464844 C 162.898438 244.074219 163.316406 244.917969 163.375 245.84375 C 163.375 245.84375 163.375 245.847656 163.375 245.847656 L 164.242188 259.101562 C 164.367188 261.011719 162.914062 262.667969 161.007812 262.789062 Z M 172.613281 262.03125 C 170.695312 262.15625 169.050781 260.707031 168.925781 258.796875 L 167.753906 240.894531 C 167.691406 239.96875 167.996094 239.078125 168.605469 238.382812 C 169.214844 237.683594 170.0625 237.265625 170.988281 237.207031 C 171.066406 237.203125 171.140625 237.199219 171.214844 237.199219 C 173.027344 237.199219 174.554688 238.613281 174.675781 240.441406 L 175.847656 258.347656 C 175.972656 260.25 174.519531 261.90625 172.613281 262.03125 Z M 179.898438 248.355469 L 179.363281 240.128906 C 179.183594 237.417969 177.699219 235.121094 175.5625 233.773438 C 187.59375 222.105469 199.851562 215.929688 208.96875 212.671875 C 210.050781 219.292969 214.257812 228.207031 225.097656 228.207031 C 235.933594 228.207031 240.140625 219.292969 241.222656 212.675781 C 250.34375 215.933594 262.601562 222.109375 274.632812 233.78125 C 272.503906 235.128906 271.007812 237.421875 270.832031 240.128906 L 270.296875 248.351562 C 240.976562 245.578125 209.214844 245.578125 179.898438 248.355469 Z M 277.578125 262.03125 C 275.667969 261.90625 274.21875 260.253906 274.34375 258.34375 L 275.515625 240.441406 C 275.640625 238.53125 277.285156 237.046875 279.203125 237.207031 C 280.125 237.265625 280.972656 237.683594 281.585938 238.382812 C 282.195312 239.078125 282.496094 239.972656 282.4375 240.894531 L 281.261719 258.796875 C 281.136719 260.707031 279.484375 262.160156 277.578125 262.03125 Z M 289.183594 262.789062 C 287.273438 262.667969 285.824219 261.011719 285.949219 259.101562 L 286.816406 245.847656 C 286.816406 245.847656 286.816406 245.84375 286.816406 245.84375 C 286.875 244.917969 287.292969 244.074219 287.992188 243.464844 C 288.6875 242.851562 289.589844 242.542969 290.503906 242.613281 C 292.410156 242.734375 293.863281 244.390625 293.738281 246.296875 L 292.867188 259.554688 C 292.746094 261.464844 291.089844 262.941406 289.183594 262.789062 Z M 300.792969 263.550781 C 298.882812 263.425781 297.433594 261.773438 297.558594 259.863281 L 298.1875 250.226562 C 298.3125 248.316406 299.941406 246.84375 301.875 246.992188 C 302.796875 247.050781 303.644531 247.46875 304.257812 248.164062 C 304.867188 248.863281 305.167969 249.753906 305.109375 250.679688 L 304.902344 253.785156 C 304.902344 253.785156 304.902344 253.789062 304.902344 253.789062 L 304.476562 260.316406 C 304.351562 262.226562 302.710938 263.683594 300.792969 263.550781 Z M 312.398438 264.3125 C 310.488281 264.1875 309.039062 262.53125 309.164062 260.625 L 309.589844 254.09375 C 309.652344 253.171875 310.066406 252.324219 310.761719 251.714844 C 311.460938 251.101562 312.363281 250.789062 313.277344 250.859375 C 314.203125 250.917969 315.046875 251.335938 315.65625 252.035156 C 316.269531 252.730469 316.570312 253.625 316.511719 254.546875 L 316.082031 261.074219 C 315.960938 262.984375 314.304688 264.453125 312.398438 264.3125 Z M 312.398438 264.3125 " fill-opacity="1" fill-rule="nonzero"/></svg>