<svg xmlns="http://www.w3.org/2000/svg" xmlns:xlink="http://www.w3.org/1999/xlink" width="600" zoomAndPan="magnify" viewBox="0 0 450 299.999988" height="400" preserveAspectRatio="xMidYMid meet" version="1.0"><rect x="-45" width="540" fill="#ffffff" y="-29.999999" height="359.999986" fill-opacity="1"/><rect x="-45" width="540" fill="#056526" y="-29.999999" height="359.999986" fill-opacity="1"/><path fill="#4e4eba" d="M 174.667969 179.679688 C 173.828125 176.296875 172.832031 172.953125 171.675781 169.667969 C 171.382812 168.769531 171.050781 167.871094 170.699219 167.011719 C 170.578125 166.578125 170.402344 166.167969 170.226562 165.757812 C 170.226562 165.738281 170.226562 165.738281 170.226562 165.738281 C 169.953125 164.957031 169.660156 164.214844 169.328125 163.472656 C 168.664062 161.808594 167.957031 160.148438 167.214844 158.542969 C 166.492188 156.980469 165.609375 154.574219 164.515625 152.113281 C 163.261719 149.375 161.773438 146.558594 159.953125 144.878906 C 160.40625 144.761719 160.855469 144.605469 161.324219 144.507812 C 162.203125 144.308594 164.515625 139.636719 165.257812 137.15625 C 165.550781 136.175781 165.628906 135.550781 165.316406 135.609375 C 164.847656 135.6875 164.375 135.785156 163.867188 135.882812 C 160.796875 136.546875 157.3125 137.78125 153.632812 139.34375 C 143.378906 143.761719 131.933594 150.976562 125.828125 156.53125 C 115.984375 165.523438 111.855469 178.46875 102.191406 187.5 C 89.902344 199.015625 81.878906 213.835938 74.914062 229.125 C 71.117188 237.375 68.769531 246.800781 71.175781 255.558594 C 73.523438 264.257812 80.332031 270.476562 88.238281 274.308594 C 98.140625 279.058594 109.15625 275.363281 117.238281 268.777344 C 122.855469 264.21875 126.710938 258.824219 133.65625 256.007812 C 139.074219 253.839844 144.730469 252.546875 150.035156 250.144531 C 150.503906 249.949219 150.972656 249.714844 151.460938 249.5 C 155.453125 247.523438 159.367188 245.019531 162.929688 242.03125 C 163.027344 241.933594 163.144531 241.851562 163.261719 241.734375 C 168.917969 236.945312 173.632812 230.945312 176.136719 224.140625 C 181.105469 210.550781 178.09375 193.308594 174.667969 179.679688 Z M 174.667969 179.679688 " fill-opacity="1" fill-rule="nonzero"/><path fill="#1d1d7a" d="M 161.695312 235.929688 C 160.894531 232.273438 159.933594 228.65625 158.546875 225.136719 C 157.175781 221.617188 155.628906 218.234375 154.066406 214.871094 C 151.050781 208.5 147.902344 202.261719 145.492188 195.632812 C 144.496094 192.894531 143.617188 190.082031 142.929688 187.167969 C 142.753906 186.464844 141.640625 186.621094 141.660156 187.34375 C 141.835938 189.964844 142.207031 192.445312 142.753906 194.871094 C 142.324219 197.472656 142.324219 200.011719 142.636719 202.515625 C 143.480469 210.238281 146.902344 217.6875 148.058594 225.46875 C 149.269531 233.660156 149.269531 241.953125 150.054688 250.164062 C 150.523438 249.96875 150.992188 249.734375 151.480469 249.519531 C 155.472656 247.542969 159.386719 245.039062 162.949219 242.050781 C 162.558594 239.976562 162.144531 237.941406 161.695312 235.929688 Z M 161.695312 235.929688 " fill-opacity="1" fill-rule="nonzero"/><path fill="#4e4eba" d="M 339.664062 290.515625 L 339.664062 291.300781 C 339.644531 294.035156 339.585938 296.988281 339.410156 300 L 173.75 300 C 173.671875 297.886719 173.554688 295.816406 173.359375 293.761719 C 172.28125 282.304688 170.539062 270.925781 168.25 259.664062 C 165.980469 253.957031 164.769531 247.777344 163.261719 241.714844 C 162.792969 239.78125 162.28125 237.804688 161.714844 235.910156 C 160.992188 233.542969 160.167969 231.257812 159.152344 229.027344 C 157.429688 225.234375 155.667969 220.054688 154.085938 214.851562 C 150.972656 204.589844 148.605469 194.226562 148.605469 194.226562 C 148.605469 194.226562 150.40625 188.320312 151.992188 185.664062 C 154.164062 182.066406 155.707031 179.738281 155.550781 176.121094 C 155.53125 175.183594 155.375 174.105469 155.082031 172.914062 C 155.0625 172.835938 155.0625 172.757812 155.023438 172.699219 C 154.691406 171.3125 154.417969 169.980469 154.28125 168.691406 C 153.847656 165.054688 154.359375 161.769531 156.921875 158.289062 C 158.917969 155.570312 161.578125 153.597656 164.535156 152.113281 C 164.75 151.996094 165.003906 151.855469 165.257812 151.757812 C 165.902344 151.425781 166.589844 151.132812 167.273438 150.859375 C 168.328125 150.429688 169.367188 150.039062 170.441406 149.6875 C 171.832031 149.238281 173.261719 148.789062 174.6875 148.339844 C 175.628906 148.042969 176.585938 147.769531 177.566406 147.496094 C 179.171875 147.027344 180.773438 146.597656 182.398438 146.167969 C 182.476562 146.148438 182.574219 146.109375 182.652344 146.109375 C 182.652344 146.109375 182.652344 146.109375 182.671875 146.109375 C 183.496094 145.894531 184.277344 145.679688 185.058594 145.484375 C 188.132812 144.78125 191.164062 144.152344 194.179688 143.722656 C 193.90625 143.507812 193.808594 143.078125 194.179688 142.824219 C 197.25 140.734375 200.421875 138.738281 203.648438 136.859375 C 212.082031 132.03125 221.066406 128.0625 230.378906 125.421875 C 230.945312 125.246094 231.535156 125.070312 232.121094 124.933594 C 233.058594 124.679688 234.019531 124.445312 234.957031 124.210938 C 238.441406 123.390625 242.121094 122.84375 245.875 122.570312 C 257.441406 121.667969 269.925781 123.3125 281.644531 127.261719 C 281.707031 127.28125 281.746094 127.28125 281.804688 127.320312 C 301.859375 134.046875 319.609375 147.476562 326.515625 166.34375 C 326.90625 167.460938 327.296875 168.613281 327.609375 169.765625 C 328.101562 171.429688 328.511719 173.148438 328.804688 174.929688 C 331.5625 190.785156 332.445312 207.34375 332.972656 223.652344 C 332.992188 224.042969 332.992188 224.472656 333.03125 224.863281 C 333.207031 225.507812 333.363281 226.191406 333.5 226.835938 C 334.109375 229.359375 334.597656 231.902344 334.988281 234.464844 C 336.417969 242.832031 337.042969 251.433594 337.746094 259.957031 C 338.375 267.09375 339.078125 274.230469 339.390625 281.386719 C 339.605469 284.417969 339.683594 287.449219 339.664062 290.515625 Z M 339.664062 290.515625 " fill-opacity="1" fill-rule="nonzero"/><path fill="#1d1d7a" d="M 258.085938 129.746094 C 256.738281 122.257812 245.015625 123.292969 240.769531 127.085938 C 240.144531 127.652344 240.808594 128.667969 241.570312 128.472656 C 244.800781 127.613281 256.167969 123.898438 254.996094 132.695312 C 254.722656 134.671875 252.667969 137.175781 251.511719 138.894531 C 248.144531 143.957031 244.195312 148.378906 238.929688 151.523438 C 234.371094 154.222656 229.34375 155.886719 224.253906 157.234375 C 221.632812 157.917969 216.503906 159.71875 214.117188 158.464844 C 207.933594 155.179688 210.5 150 212.140625 146.929688 C 212.671875 145.953125 211.28125 145.191406 210.675781 146.070312 C 208.738281 148.90625 207.113281 151.976562 208.011719 155.925781 C 208.679688 158.894531 211.59375 160.714844 214.371094 161.261719 C 219.050781 162.179688 224.488281 160.148438 228.890625 158.777344 C 234.136719 157.15625 239.242188 155.003906 243.664062 151.679688 C 249.007812 147.691406 259.4375 137.292969 258.085938 129.746094 Z M 258.085938 129.746094 " fill-opacity="1" fill-rule="nonzero"/><path fill="#4e4eba" d="M 374.515625 249.871094 C 373.125 246.976562 371.34375 244.257812 369.917969 241.421875 C 369.722656 241.089844 369.542969 240.757812 369.386719 240.425781 C 368.585938 238.765625 368.097656 237.277344 367.785156 235.832031 C 367.253906 233.210938 367.390625 230.730469 367.527344 227.503906 C 367.804688 221.890625 365.925781 217.257812 362.96875 212.605469 C 359.074219 206.503906 354.867188 201.089844 352.246094 194.246094 C 349.527344 187.167969 347.824219 179.71875 344.890625 172.679688 C 342.972656 168.125 340.351562 163.863281 337.160156 159.894531 C 336.457031 158.992188 335.710938 158.113281 334.910156 157.253906 C 321.664062 142.433594 300.6875 132.1875 281.785156 127.28125 C 281.726562 127.261719 281.6875 127.261719 281.625 127.222656 C 270.824219 124.40625 284.816406 133.675781 286.285156 133.851562 C 286.851562 133.929688 287.4375 134.046875 288.007812 134.125 C 288.007812 134.378906 288.027344 134.613281 288.164062 134.867188 C 295.792969 150 303.503906 164.195312 306.96875 180.96875 C 307.808594 185.054688 308.492188 189.160156 309.023438 193.289062 C 310.078125 201.265625 310.664062 209.320312 311.214844 217.335938 C 311.410156 220.386719 311.585938 223.398438 311.820312 226.425781 L 311.820312 226.445312 C 311.839844 226.835938 311.878906 227.230469 311.898438 227.621094 C 312.71875 239.214844 313.171875 253.546875 316.90625 265.746094 C 317.535156 267.738281 318.238281 269.65625 319.019531 271.53125 L 319.019531 271.550781 C 322.894531 280.546875 329.136719 287.78125 339.625 290.910156 C 340.410156 291.125 341.230469 291.339844 342.050781 291.535156 C 353.207031 294.054688 365.90625 291.164062 373.398438 282.109375 C 381.480469 272.453125 379.640625 260.484375 374.515625 249.871094 Z M 374.515625 249.871094 " fill-opacity="1" fill-rule="nonzero"/><path fill="#1d1d7a" d="M 369.9375 241.421875 C 368.878906 240.484375 367.726562 239.605469 366.375 238.824219 C 362.285156 236.476562 357.765625 236.613281 353.65625 234.71875 C 348.097656 232.117188 344.359375 228.089844 337.882812 227.09375 C 330.78125 226.015625 321.328125 227.5625 317.378906 234.324219 C 316.90625 235.148438 315.8125 234.425781 316.164062 233.601562 C 321.605469 220.816406 339.898438 221.773438 349.976562 228.128906 C 353.265625 230.199219 355.632812 231.863281 359.546875 232.761719 C 362.460938 233.425781 365.199219 234.382812 367.804688 235.851562 C 368.097656 237.296875 368.605469 238.765625 369.40625 240.445312 C 369.5625 240.738281 369.742188 241.089844 369.9375 241.421875 Z M 369.9375 241.421875 " fill-opacity="1" fill-rule="nonzero"/><path fill="#1d1d7a" d="M 314.226562 185.820312 C 310.214844 196.53125 312.757812 208.207031 315.066406 218.957031 C 317.179688 228.792969 319.804688 238.589844 320.722656 248.636719 C 320.820312 249.792969 319.175781 249.832031 318.84375 248.890625 C 315.304688 238.785156 313.289062 227.933594 311.234375 217.335938 C 311.039062 216.339844 310.839844 215.320312 310.625 214.324219 C 309.257812 207.441406 308.238281 200.265625 309.023438 193.289062 C 309.296875 190.804688 309.824219 188.320312 310.625 185.878906 C 313.640625 176.804688 320.625 171.449219 327.550781 165.367188 C 330.371094 162.902344 332.796875 160.167969 334.910156 157.234375 C 335.710938 158.113281 336.457031 158.972656 337.160156 159.875 C 336.183594 161.222656 335.164062 162.492188 334.007812 163.707031 C 327.21875 171.097656 317.925781 175.984375 314.226562 185.820312 Z M 314.226562 185.820312 " fill-opacity="1" fill-rule="nonzero"/><path fill="#1d1d7a" d="M 333.304688 286.351562 C 330.097656 283.539062 327.121094 279.253906 324.753906 274.738281 C 323.089844 271.589844 321.683594 268.328125 320.722656 265.394531 C 320.46875 264.59375 319.453125 263.90625 318.628906 264.496094 C 318.472656 264.59375 318.375 264.671875 318.257812 264.769531 C 318.042969 264.335938 317.339844 264.394531 317.339844 264.945312 L 317.339844 265.414062 C 317.179688 265.53125 317.0625 265.628906 316.964844 265.765625 C 316.59375 266.136719 316.359375 266.605469 315.851562 267.679688 C 315.226562 268.972656 316.574219 270.144531 317.574219 269.851562 C 317.59375 270.144531 317.632812 270.417969 317.671875 270.730469 C 318.667969 280.234375 322.09375 290.125 327.003906 297.984375 C 327.492188 298.808594 328.101562 299.453125 328.746094 299.980469 L 339.449219 299.980469 C 339.625 296.96875 339.664062 294.015625 339.703125 291.28125 L 339.703125 290.496094 C 337.257812 289.246094 334.949219 287.839844 333.304688 286.351562 Z M 333.304688 286.351562 " fill-opacity="1" fill-rule="nonzero"/><path fill="#a64b37" d="M 261.921875 69.996094 C 262.097656 65.164062 261.667969 60.296875 260.316406 55.625 C 258.929688 50.835938 256.621094 46.707031 253.46875 43.328125 C 250.847656 39.652344 247.421875 36.816406 243 35.5625 C 241.785156 35.230469 240.515625 34.996094 239.164062 34.898438 C 239.085938 34.605469 238.988281 34.292969 238.851562 34 C 235.152344 22.660156 225.644531 14.332031 214.902344 9.660156 C 192.632812 0 161.929688 6.941406 145.433594 24.65625 C 139.527344 31.007812 132.597656 37.050781 123.929688 39.4375 C 122.699219 39.789062 123.011719 41.449219 123.890625 41.957031 C 127.121094 43.738281 131.113281 45.125 134.945312 45.222656 C 135.378906 45.242188 135.808594 45.242188 136.21875 45.222656 C 134.769531 47.492188 133.539062 49.875 132.597656 52.144531 C 132.382812 52.652344 132.1875 53.140625 132.011719 53.648438 C 127.082031 66.886719 131.894531 84.011719 119.566406 94.082031 C 118.726562 94.765625 119.097656 96.019531 120.113281 96.253906 C 121.542969 96.585938 122.992188 96.839844 124.4375 96.996094 C 127.726562 97.425781 131.054688 97.347656 134.203125 96.390625 C 132.949219 98.441406 131.289062 100.261719 130.660156 102.703125 C 130.542969 103.15625 130.816406 103.644531 131.132812 103.9375 C 133.5 105.96875 138.078125 106.164062 141.011719 106.007812 C 143.558594 105.871094 146.140625 105.1875 148.46875 104.035156 C 148.976562 105.207031 149.621094 106.339844 150.523438 107.417969 C 151.070312 108.082031 151.894531 108.140625 152.539062 108.746094 C 156.707031 112.558594 156.453125 113.691406 158.449219 118.089844 C 161.382812 124.523438 167.058594 126.207031 173.789062 126.089844 C 185.53125 125.914062 197.269531 125.363281 209.011719 124.777344 C 214.175781 124.523438 219.363281 124.25 224.527344 123.957031 C 227.128906 123.820312 230.691406 124.230469 233.195312 123.449219 C 237.226562 122.199219 239.988281 117.621094 242.023438 114.21875 C 244.742188 109.683594 248.167969 105.8125 251.277344 101.53125 C 253.859375 97.972656 256.226562 94.023438 257.363281 89.839844 C 258.949219 90.777344 260.867188 91.207031 263.15625 90.835938 C 264.191406 90.679688 264.875 89.410156 264.152344 88.53125 C 259.828125 83.152344 261.707031 76.328125 261.921875 69.996094 Z M 261.921875 69.996094 " fill-opacity="1" fill-rule="nonzero"/><path fill="#752e1e" d="M 146.746094 83.386719 C 146.492188 83.210938 146.179688 83.171875 145.90625 83.191406 C 146.824219 81.550781 147.625 79.75 148.195312 77.835938 C 148.410156 77.132812 147.625 76.640625 147.097656 77.191406 C 145.769531 78.519531 144.613281 79.886719 143.480469 81.257812 C 143.417969 81.316406 143.398438 81.355469 143.398438 81.355469 C 143.398438 81.355469 143.398438 81.355469 143.378906 81.375 C 143.378906 81.375 143.378906 81.375 143.378906 81.394531 C 140.191406 85.285156 137.355469 89.214844 132.773438 92.109375 C 130.054688 93.828125 127.296875 95.449219 124.496094 97.015625 C 127.765625 97.445312 131.113281 97.367188 134.242188 96.410156 C 133.03125 98.460938 131.347656 100.28125 130.71875 102.703125 C 130.601562 103.132812 130.878906 103.625 131.171875 103.917969 C 133.558594 105.929688 138.136719 106.125 141.070312 105.988281 C 141.640625 105.96875 142.226562 105.890625 142.8125 105.8125 C 142.988281 105.792969 143.183594 105.734375 143.359375 105.714844 C 143.65625 105.65625 143.96875 105.597656 144.261719 105.519531 C 144.613281 105.441406 144.964844 105.34375 145.316406 105.246094 C 145.769531 105.128906 146.238281 104.972656 146.6875 104.796875 C 146.785156 104.777344 146.863281 104.71875 146.960938 104.699219 C 147.019531 104.679688 147.058594 104.679688 147.117188 104.640625 C 147.585938 104.445312 148.058594 104.25 148.546875 104.015625 C 148.800781 104.582031 149.09375 105.1875 149.425781 105.734375 C 149.761719 106.28125 150.152344 106.828125 150.582031 107.359375 C 154.710938 99.988281 153.28125 88.316406 146.746094 83.386719 Z M 146.746094 83.386719 " fill-opacity="1" fill-rule="nonzero"/><path fill="#ffad96" d="M 247.988281 125.402344 C 243.585938 120.496094 238.519531 107.320312 234.859375 101.824219 C 233.019531 99.046875 230.574219 98.304688 226.386719 98.128906 C 222.042969 97.953125 216.601562 106.300781 214.3125 109.214844 C 212.90625 110.976562 211.652344 112.890625 210.4375 114.90625 C 207.289062 120.164062 204.472656 125.914062 200.207031 129.960938 C 199.871094 129.765625 199.578125 129.550781 199.207031 129.371094 C 198.875 129.195312 198.425781 129.628906 198.777344 129.902344 C 199.070312 130.136719 199.324219 130.410156 199.597656 130.683594 C 198.875 131.777344 200.109375 133.1875 201.28125 132.773438 C 202.652344 134.789062 203.6875 137.078125 204.902344 139.070312 C 205.566406 140.183594 206.292969 141.28125 206.996094 142.375 C 208.109375 144.113281 209.265625 145.796875 210.457031 147.457031 C 210.578125 147.632812 210.714844 147.808594 210.832031 147.984375 C 211.515625 148.945312 212.140625 149.882812 212.789062 150.703125 C 214.585938 153.128906 216.445312 154.75 220.066406 153.8125 C 227.070312 151.996094 234.273438 149.589844 239.910156 144.878906 C 243.800781 141.554688 252.765625 130.722656 247.988281 125.402344 Z M 247.988281 125.402344 " fill-opacity="1" fill-rule="nonzero"/><path fill="#e06c4e" d="M 228.460938 116.175781 C 226.484375 112.167969 222.316406 110.9375 218.128906 111.972656 C 215.742188 112.539062 213.101562 113.535156 210.417969 114.886719 C 209.675781 116.097656 208.953125 117.367188 208.226562 118.621094 C 207.386719 120.066406 206.527344 121.53125 205.664062 122.941406 C 205.214844 123.644531 204.765625 124.328125 204.296875 125.011719 C 204 125.460938 203.667969 125.914062 203.355469 126.34375 C 203.160156 126.636719 202.90625 126.949219 202.652344 127.242188 C 202.59375 127.320312 202.554688 127.359375 202.496094 127.4375 C 202.476562 127.457031 202.476562 127.457031 202.4375 127.496094 C 202.378906 127.574219 202.339844 127.613281 202.261719 127.691406 L 202.242188 127.710938 C 201.964844 128.0625 201.671875 128.433594 201.339844 128.765625 C 200.96875 129.195312 200.597656 129.589844 200.1875 129.960938 C 199.832031 129.765625 199.539062 129.53125 199.167969 129.351562 C 198.835938 129.175781 198.386719 129.628906 198.738281 129.902344 C 199.011719 130.15625 199.285156 130.429688 199.539062 130.683594 C 198.835938 131.777344 200.070312 133.167969 201.242188 132.773438 C 201.496094 133.144531 201.730469 133.519531 201.945312 133.890625 C 202.003906 133.96875 202.042969 134.066406 202.105469 134.144531 C 202.300781 134.476562 202.496094 134.789062 202.671875 135.140625 C 203.023438 135.707031 203.316406 136.3125 203.648438 136.878906 C 204.039062 137.625 204.453125 138.367188 204.863281 139.070312 C 205.527344 140.183594 206.230469 141.28125 206.957031 142.394531 C 207.523438 143.273438 208.109375 144.113281 208.679688 144.996094 C 209.128906 145.660156 209.597656 146.324219 210.066406 146.988281 C 210.183594 147.164062 210.28125 147.320312 210.417969 147.476562 C 210.519531 147.652344 210.675781 147.828125 210.792969 148.003906 C 210.96875 148.261719 211.125 148.476562 211.261719 148.710938 C 211.75 149.433594 212.238281 150.097656 212.730469 150.722656 C 212.90625 150.664062 213.0625 150.644531 213.21875 150.566406 C 218.421875 148.945312 223.414062 142.921875 226.191406 138.582031 C 228.246094 135.375 229.714844 131.582031 230.183594 127.691406 C 230.28125 126.949219 230.359375 126.207031 230.359375 125.441406 C 230.378906 124.914062 230.378906 124.425781 230.359375 123.898438 C 230.28125 121.238281 229.675781 118.621094 228.460938 116.175781 Z M 228.460938 116.175781 " fill-opacity="1" fill-rule="nonzero"/><path fill="#ffad96" d="M 241.570312 79.945312 C 241.570312 79.769531 241.550781 79.613281 241.511719 79.457031 C 241.53125 79.4375 241.53125 79.4375 241.511719 79.398438 C 241.433594 78.832031 241.355469 78.304688 241.257812 77.757812 C 241.277344 77.738281 241.257812 77.699219 241.257812 77.699219 C 240.730469 74.433594 239.988281 71.246094 239.046875 68.195312 C 238.246094 65.59375 237.265625 63.09375 236.152344 60.746094 C 233.429688 55.058594 229.617188 49.972656 224.605469 45.964844 C 223.785156 45.300781 222.941406 44.675781 222.0625 44.070312 C 220.242188 42.816406 218.304688 41.703125 216.171875 40.726562 C 207.074219 36.523438 199.34375 36.074219 189.480469 37.988281 C 171.949219 41.429688 148.234375 54.765625 145.003906 64.324219 C 143.558594 68.585938 143.105469 74.667969 143.359375 81.355469 C 143.359375 81.355469 143.359375 81.355469 143.359375 81.375 C 143.65625 89.019531 144.90625 97.503906 146.6875 104.796875 L 146.6875 104.816406 C 146.84375 105.382812 146.960938 105.929688 147.117188 106.476562 C 149.308594 115.003906 152.949219 122.824219 157.898438 129.3125 C 158.292969 129.84375 158.722656 130.390625 159.152344 130.878906 C 159.347656 131.09375 159.523438 131.308594 159.699219 131.503906 C 160.128906 131.992188 160.582031 132.5 161.03125 132.988281 C 161.050781 133.007812 161.050781 133.007812 161.089844 133.046875 C 161.988281 134.046875 162.929688 134.964844 163.90625 135.84375 C 164.355469 136.292969 164.828125 136.683594 165.296875 137.117188 C 169.914062 141.027344 175.257812 143.976562 181.226562 145.71875 C 181.441406 145.796875 181.675781 145.835938 181.890625 145.894531 C 182.046875 145.953125 182.183594 145.992188 182.339844 146.011719 C 182.359375 146.011719 182.359375 146.011719 182.398438 146.011719 C 182.476562 146.03125 182.574219 146.070312 182.652344 146.089844 C 182.652344 146.089844 182.652344 146.089844 182.671875 146.089844 C 182.945312 146.167969 183.238281 146.246094 183.554688 146.304688 C 183.925781 146.402344 184.335938 146.480469 184.707031 146.558594 C 184.863281 146.578125 185.039062 146.617188 185.175781 146.636719 C 185.332031 146.65625 185.511719 146.695312 185.648438 146.714844 C 190.851562 147.632812 196.449219 147.652344 202.476562 146.597656 C 204.6875 146.207031 206.761719 145.660156 208.71875 144.957031 C 218.089844 141.769531 224.605469 135.492188 230.242188 127.652344 C 230.90625 126.753906 231.535156 125.835938 232.160156 124.914062 C 232.492188 124.445312 232.804688 123.9375 233.136719 123.449219 C 233.390625 123.078125 233.628906 122.667969 233.882812 122.296875 C 236.210938 118.679688 238.03125 114.574219 239.359375 110.132812 L 239.359375 110.113281 C 239.710938 108.902344 240.066406 107.671875 240.339844 106.398438 L 240.339844 106.378906 C 241.355469 102.195312 241.945312 97.777344 242.160156 93.339844 C 242.160156 93.320312 242.160156 93.28125 242.160156 93.28125 C 242.179688 92.792969 242.179688 92.285156 242.21875 91.792969 C 242.21875 91.773438 242.21875 91.773438 242.21875 91.773438 C 242.296875 87.824219 242.082031 83.835938 241.570312 79.945312 Z M 241.570312 79.945312 " fill-opacity="1" fill-rule="nonzero"/><path fill="#e06c4e" d="M 168.425781 99.832031 C 168.054688 98.167969 165.316406 98.539062 164.101562 98.714844 C 162.382812 98.96875 160.03125 99.558594 159.054688 101.121094 C 158.507812 101.980469 159.40625 102.78125 160.25 102.664062 C 161.1875 102.527344 161.949219 101.921875 162.851562 101.609375 C 163.808594 101.277344 164.808594 101.082031 165.824219 101.023438 C 166.492188 101.003906 168.722656 101.179688 168.425781 99.832031 Z M 168.425781 99.832031 " fill-opacity="1" fill-rule="nonzero"/><path fill="#e06c4e" d="M 203.550781 92.167969 C 201.007812 90.894531 195.882812 92.128906 195.195312 95.234375 C 195.078125 95.726562 195.527344 96.292969 196.078125 96.117188 C 197.816406 95.507812 199.070312 94.316406 201.027344 94.277344 C 202.003906 94.257812 204.179688 94.863281 204.15625 93.203125 C 204.136719 92.792969 203.921875 92.34375 203.550781 92.167969 Z M 203.550781 92.167969 " fill-opacity="1" fill-rule="nonzero"/><path fill="#a64b37" d="M 242.980469 59.417969 C 240.710938 53.785156 236.796875 48.371094 232.628906 44.011719 C 231.984375 43.308594 231.296875 42.660156 230.613281 42.035156 C 229.8125 41.3125 229.007812 40.648438 228.226562 40.042969 C 219.167969 33.023438 208.679688 31.59375 196.703125 32.847656 C 181.792969 34.371094 168.347656 37.714844 155.707031 46.023438 C 144.183594 53.589844 140.269531 64.832031 142.382812 78.34375 C 142.441406 78.519531 142.460938 78.675781 142.539062 78.792969 C 142.011719 79.789062 141.5625 80.886719 141.265625 82.039062 C 141.070312 82.78125 143.085938 81.550781 143.378906 81.375 C 143.398438 81.355469 143.398438 81.355469 143.398438 81.355469 C 143.398438 81.355469 143.417969 81.296875 143.480469 81.257812 C 144.105469 80.140625 149.386719 71.207031 153.300781 66.613281 C 155.726562 63.816406 158.507812 61.410156 161.558594 59.359375 C 162.480469 58.734375 163.457031 58.144531 164.4375 57.578125 C 163.085938 59.574219 161.890625 61.722656 161.011719 64.050781 C 160.894531 64.34375 160.757812 64.617188 160.660156 64.949219 C 160.328125 65.871094 161.1875 66.828125 162.125 66.476562 C 171.304688 63.035156 179.914062 58.617188 189.207031 55.644531 C 196.292969 53.375 201.28125 52.164062 211.632812 51.304688 C 212.003906 51.421875 212.335938 51.519531 212.632812 51.65625 C 213.335938 51.929688 213.726562 52.203125 213.648438 52.496094 C 213.53125 53.199219 213.433594 53.882812 213.355469 54.609375 C 212.296875 65.320312 225.09375 88.117188 226.640625 87.257812 C 227.660156 86.652344 226.464844 78.03125 226.464844 76.015625 C 227.070312 76.660156 227.679688 77.289062 228.382812 77.894531 C 228.578125 78.050781 228.773438 78.226562 228.988281 78.363281 C 231.457031 80.257812 234.800781 82.019531 238.011719 82.195312 L 238.03125 82.195312 C 239.027344 82.253906 239.96875 82.136719 240.925781 81.84375 C 240.945312 81.84375 240.945312 81.824219 240.945312 81.824219 L 240.964844 81.824219 C 241.433594 81.628906 241.609375 80.925781 241.335938 80.492188 C 241.277344 80.394531 241.21875 80.316406 241.121094 80.277344 C 241.101562 80.257812 241.042969 80.21875 241.023438 80.199219 C 241.179688 80.179688 241.296875 80.121094 241.414062 80.023438 C 241.472656 80.003906 241.511719 79.964844 241.53125 79.945312 C 241.6875 79.789062 241.804688 79.59375 241.863281 79.339844 C 242.804688 75.546875 243.878906 71.695312 244.136719 67.84375 C 244.351562 65.046875 244.078125 62.195312 242.980469 59.417969 Z M 242.980469 59.417969 " fill-opacity="1" fill-rule="nonzero"/><path fill="#ffad96" d="M 255.25 87.863281 C 252 104.679688 233.511719 109.058594 233.511719 109.058594 C 233.511719 109.058594 226.074219 94.179688 227.445312 84.109375 C 228.792969 74.042969 236.132812 66.730469 243.800781 67.765625 C 251.472656 68.820312 257.1875 77.914062 255.25 87.863281 Z M 255.25 87.863281 " fill-opacity="1" fill-rule="nonzero"/><path fill="#e06c4e" d="M 240.085938 84.972656 C 240.203125 84.089844 240.496094 83.210938 240.789062 82.371094 C 241.355469 80.769531 241.90625 78.949219 241.160156 77.425781 C 240.945312 76.996094 240.515625 76.5625 240.046875 76.699219 C 239.652344 76.816406 239.476562 77.269531 239.359375 77.679688 C 238.8125 79.554688 238.265625 81.453125 237.71875 83.328125 C 237.382812 84.464844 237.050781 85.65625 237.246094 86.808594 C 237.460938 88.058594 238.285156 89.136719 238.65625 90.347656 C 239.046875 91.617188 238.949219 92.988281 239.28125 94.277344 C 239.417969 94.785156 239.691406 95.332031 240.203125 95.449219 C 240.671875 95.546875 241.140625 95.234375 241.433594 94.863281 C 242.257812 93.847656 242.375 92.402344 242.0625 91.128906 C 241.707031 89.683594 240.671875 88.589844 240.242188 87.199219 C 240.007812 86.457031 239.988281 85.714844 240.085938 84.972656 Z M 240.085938 84.972656 " fill-opacity="1" fill-rule="nonzero"/><path fill="#e06c4e" d="M 176.390625 105.773438 C 177.625 105.089844 177.722656 103.351562 178.074219 102.117188 C 178.660156 100.007812 179.25 97.328125 178.113281 95.3125 C 177.546875 94.316406 176.175781 94.160156 175.609375 95.273438 C 174.667969 97.152344 174.609375 99.480469 174.0625 101.492188 C 173.613281 103.136719 172.417969 107.164062 176.019531 105.929688 C 176.15625 105.890625 176.273438 105.851562 176.390625 105.773438 Z M 176.390625 105.773438 " fill-opacity="1" fill-rule="nonzero"/><path fill="#752e1e" d="M 243 35.582031 C 239.671875 37.03125 236.445312 38.652344 233.3125 40.414062 C 232.394531 40.921875 231.476562 41.449219 230.59375 42.035156 C 224.449219 45.730469 218.832031 50.03125 213.355469 54.609375 C 213.414062 53.863281 213.511719 53.179688 213.667969 52.496094 C 213.726562 52.183594 213.316406 51.910156 212.632812 51.636719 C 217.386719 47.238281 222.6875 43.386719 228.207031 40.042969 C 229.480469 39.238281 230.730469 38.496094 232.042969 37.773438 C 234.195312 36.582031 236.464844 35.269531 238.871094 34.039062 C 239.007812 34.332031 239.085938 34.644531 239.183594 34.9375 C 240.535156 35.015625 241.785156 35.25 243 35.582031 Z M 243 35.582031 " fill-opacity="1" fill-rule="nonzero"/><path fill="#752e1e" d="M 190.871094 43.640625 C 182.925781 47.628906 175.0625 50.363281 168.230469 56.386719 C 165.511719 58.753906 163.164062 61.3125 161.011719 64.050781 C 161.890625 61.722656 163.085938 59.574219 164.417969 57.558594 C 163.457031 58.125 162.5 58.714844 161.558594 59.339844 C 169.191406 50.207031 179.738281 43.109375 190.539062 42.328125 C 191.339844 42.269531 191.554688 43.308594 190.871094 43.640625 Z M 190.871094 43.640625 " fill-opacity="1" fill-rule="nonzero"/><path fill="#752e1e" d="M 171.011719 26.550781 C 160.855469 31.164062 151.050781 34.253906 142.363281 41.722656 C 138.683594 44.890625 135.476562 48.371094 132.636719 52.164062 C 133.578125 49.894531 134.808594 47.53125 136.257812 45.242188 C 135.828125 45.261719 135.417969 45.261719 134.984375 45.242188 C 136.394531 43.699219 137.84375 42.230469 139.390625 40.824219 C 147.507812 33.335938 159.347656 25.613281 170.777344 25.535156 C 171.363281 25.515625 171.597656 26.316406 171.011719 26.550781 Z M 171.011719 26.550781 " fill-opacity="1" fill-rule="nonzero"/><path fill="#752e1e" d="M 197.917969 19.746094 C 186.546875 12.101562 170.1875 18.339844 159.269531 23.65625 C 158.585938 23.988281 158.996094 24.910156 159.699219 24.714844 C 166.195312 22.933594 172.730469 20.648438 179.40625 19.6875 C 185.6875 18.789062 191.339844 19.746094 197.503906 20.707031 C 198.015625 20.765625 198.386719 20.058594 197.917969 19.746094 Z M 197.917969 19.746094 " fill-opacity="1" fill-rule="nonzero"/><path fill="#752e1e" d="M 242.160156 40.609375 C 241.296875 40.335938 240.75 41.507812 241.589844 41.917969 C 245.582031 43.816406 248.871094 47.0625 250.789062 51.050781 C 252.433594 54.511719 252.453125 58.1875 253.566406 61.761719 C 253.722656 62.273438 254.625 62.3125 254.78125 61.78125 C 257.421875 53.003906 250.300781 43.230469 242.160156 40.609375 Z M 242.160156 40.609375 " fill-opacity="1" fill-rule="nonzero"/><path fill="#a64b37" d="M 168.308594 86.300781 C 168.683594 85.753906 168.917969 85.128906 168.878906 84.484375 C 168.722656 80.53125 164.160156 80.21875 161.128906 80.023438 C 158.957031 79.886719 152.382812 78.109375 153.261719 82.175781 C 153.4375 83.035156 154.125 83.679688 154.789062 84.226562 C 156.570312 85.675781 158.605469 86.847656 160.796875 87.648438 C 162.324219 88.21875 164.042969 88.589844 165.707031 88.140625 C 166.746094 87.863281 167.722656 87.179688 168.308594 86.300781 Z M 168.308594 86.300781 " fill-opacity="1" fill-rule="nonzero"/><path fill="#a64b37" d="M 193.179688 82.664062 C 194.902344 82.449219 196.332031 81.453125 197.542969 80.355469 C 199.265625 78.773438 200.714844 76.9375 201.808594 74.902344 C 202.222656 74.140625 202.613281 73.300781 202.457031 72.4375 C 201.710938 68.351562 196.3125 72.476562 194.355469 73.4375 C 191.636719 74.746094 187.527344 76.777344 188.875 80.492188 C 189.089844 81.101562 189.542969 81.589844 190.089844 81.960938 C 190.96875 82.527344 192.125 82.800781 193.179688 82.664062 Z M 193.179688 82.664062 " fill-opacity="1" fill-rule="nonzero"/><path fill="#361c16" d="M 198.035156 86.847656 C 200.34375 85.851562 203.511719 85.636719 205.566406 87.296875 C 206.171875 87.785156 206.015625 88.667969 205.253906 88.882812 C 203.785156 89.3125 202.222656 89.175781 200.734375 89.507812 C 199.1875 89.859375 198.269531 90.601562 197.132812 91.636719 C 196.195312 92.480469 194.453125 93.4375 194.121094 91.480469 C 193.769531 89.390625 196.410156 87.550781 198.035156 86.847656 Z M 198.035156 86.847656 " fill-opacity="1" fill-rule="nonzero"/><path fill="#361c16" d="M 162.125 92.910156 C 159.601562 92.773438 156.570312 93.671875 155.21875 95.941406 C 154.808594 96.605469 155.277344 97.386719 156.0625 97.328125 C 157.585938 97.230469 159.015625 96.546875 160.523438 96.351562 C 162.105469 96.136719 163.222656 96.527344 164.632812 97.09375 C 165.804688 97.5625 167.78125 97.855469 167.390625 95.902344 C 167 93.789062 163.886719 92.988281 162.125 92.910156 Z M 162.125 92.910156 " fill-opacity="1" fill-rule="nonzero"/><path fill="#611d0b" d="M 196.078125 124.71875 C 196.058594 124.269531 196 123.820312 195.921875 123.371094 C 195.902344 123.117188 195.863281 122.902344 195.824219 122.667969 C 195.742188 122.179688 195.644531 121.667969 195.546875 121.179688 C 195.46875 120.828125 195.390625 120.476562 195.332031 120.183594 C 195.117188 119.246094 194.804688 118.386719 194.53125 117.660156 C 193.6875 115.492188 192.632812 113.671875 191.4375 112.597656 C 191.183594 112.382812 190.910156 112.167969 190.65625 112.050781 C 187.40625 110.230469 183.023438 113.808594 181.363281 116.566406 C 180.695312 117.640625 180.558594 118.5625 180.734375 119.441406 C 181.066406 120.964844 182.339844 122.316406 183.28125 124.074219 C 183.574219 124.621094 183.886719 125.226562 184.160156 125.816406 C 184.355469 126.207031 184.550781 126.636719 184.765625 127.066406 C 185.058594 127.691406 185.375 128.335938 185.6875 128.960938 C 186.332031 130.214844 187.074219 131.386719 187.976562 132.246094 C 189.148438 133.363281 190.910156 134.007812 192.398438 133.34375 C 192.691406 133.226562 192.964844 133.066406 193.21875 132.890625 C 193.570312 132.597656 193.886719 132.285156 194.238281 131.992188 C 194.414062 131.796875 194.570312 131.601562 194.6875 131.386719 C 194.765625 131.308594 194.84375 131.210938 194.863281 131.113281 C 195.195312 130.585938 195.46875 130 195.664062 129.332031 C 195.722656 129.136719 195.78125 128.902344 195.84375 128.6875 C 195.902344 128.472656 195.921875 128.238281 195.960938 128.023438 C 196.019531 127.691406 196.058594 127.359375 196.078125 127.007812 C 196.097656 126.460938 196.136719 125.914062 196.097656 125.363281 C 196.097656 125.167969 196.097656 124.953125 196.078125 124.71875 Z M 196.078125 124.71875 " fill-opacity="1" fill-rule="nonzero"/><path fill="#ffad96" d="M 89.003906 220.933594 C 103.089844 198.117188 139.332031 157.957031 139.332031 157.957031 L 156.140625 169.980469 C 156.140625 169.980469 128.136719 237.609375 122.679688 249.578125 C 117.21875 261.542969 101.484375 272.941406 89.316406 264.691406 C 78.632812 257.4375 74.914062 243.75 89.003906 220.933594 Z M 89.003906 220.933594 " fill-opacity="1" fill-rule="nonzero"/><path fill="#e06c4e" d="M 179.972656 150.390625 C 177.371094 151.796875 175.726562 155.570312 174.140625 157.683594 C 173.066406 159.128906 171.519531 160.734375 170.402344 162.394531 C 170.070312 162.726562 169.777344 163.097656 169.425781 163.433594 C 169.152344 163.472656 168.878906 163.53125 168.625 163.726562 C 168.230469 164 167.878906 164.234375 167.585938 164.488281 C 167.371094 164.527344 167.136719 164.585938 166.980469 164.742188 C 166.097656 165.484375 165.667969 166.226562 165.550781 166.914062 C 165.511719 166.972656 165.492188 167.011719 165.453125 167.070312 C 164.945312 168.085938 165.746094 169.101562 166.84375 169.316406 C 168.171875 170.117188 170.304688 170.292969 172.339844 169.394531 C 177.664062 167.011719 181.636719 162.179688 183.339844 157.625 C 183.964844 155.925781 185.609375 147.339844 179.972656 150.390625 Z M 179.972656 150.390625 " fill-opacity="1" fill-rule="nonzero"/><path fill="#ffad96" d="M 182.554688 147.007812 C 182.496094 146.734375 182.457031 146.441406 182.378906 146.167969 C 182.378906 146.109375 182.359375 146.089844 182.320312 146.050781 C 182.320312 145.992188 182.320312 145.953125 182.300781 145.875 C 181.597656 143.136719 180.109375 140.574219 178.191406 138.347656 C 178.191406 138.347656 178.191406 138.328125 178.171875 138.328125 C 176.195312 136.039062 173.75 134.125 171.246094 132.773438 C 171.226562 132.753906 171.1875 132.753906 171.167969 132.714844 C 171.167969 132.714844 171.148438 132.714844 171.109375 132.695312 C 167.136719 130.625 164.082031 131.230469 161.1875 132.988281 C 161.167969 132.988281 161.167969 133.007812 161.128906 133.007812 C 161.109375 133.027344 161.109375 133.066406 161.050781 133.085938 C 159.230469 134.203125 157.488281 135.804688 155.609375 137.449219 C 154.984375 137.996094 154.339844 138.640625 153.632812 139.34375 C 146.902344 146.246094 138.117188 159.207031 138.117188 159.207031 C 138.117188 159.207031 138.117188 159.226562 138.175781 159.285156 C 138.273438 159.582031 138.820312 160.773438 139.351562 160.167969 C 139.410156 160.109375 139.429688 160.070312 139.46875 159.992188 C 138.722656 161.789062 138.3125 163.726562 138.546875 165.699219 C 139.035156 170.292969 143.105469 173.34375 147.019531 175.144531 C 148.644531 175.886719 150.816406 176.863281 153.378906 176.609375 C 154.046875 176.550781 154.769531 176.414062 155.53125 176.140625 C 157.273438 175.535156 159.171875 174.339844 161.1875 172.171875 C 161.8125 171.507812 162.832031 171.390625 163.613281 171.019531 C 164.769531 170.449219 165.863281 169.863281 166.824219 169.316406 C 167.390625 169.023438 167.917969 168.710938 168.386719 168.4375 C 169.386719 167.832031 170.1875 167.34375 170.679688 166.992188 C 170.835938 166.890625 170.953125 166.8125 171.050781 166.734375 C 171.109375 166.714844 171.148438 166.675781 171.167969 166.65625 C 172.96875 165.269531 173.769531 163.550781 173.964844 161.652344 C 173.984375 161.554688 174.023438 161.4375 174.023438 161.320312 C 175.082031 161.339844 176.175781 161.066406 177.117188 160.65625 C 178.015625 160.226562 178.757812 159.660156 179.210938 158.992188 C 179.582031 158.425781 179.777344 157.78125 179.816406 157.097656 C 179.914062 156.179688 179.738281 155.21875 179.425781 154.300781 C 180.226562 154.105469 180.871094 153.65625 181.34375 153.011719 C 182.007812 152.171875 182.4375 151.035156 182.613281 149.84375 C 182.730469 148.90625 182.730469 147.925781 182.554688 147.007812 Z M 182.554688 147.007812 " fill-opacity="1" fill-rule="nonzero"/><path fill="#e06c4e" d="M 179.445312 154.300781 C 179.777344 155.21875 179.933594 156.179688 179.835938 157.097656 C 178.738281 154.847656 177.917969 152.386719 176.410156 150.3125 C 174.199219 147.28125 171.070312 145.445312 168.328125 143.019531 C 167.898438 142.667969 168.347656 142.179688 168.78125 142.21875 C 173.789062 142.921875 178.777344 147.808594 181.34375 153.011719 C 180.890625 153.65625 180.246094 154.105469 179.445312 154.300781 Z M 179.445312 154.300781 " fill-opacity="1" fill-rule="nonzero"/><path fill="#e06c4e" d="M 177.15625 160.65625 C 176.214844 161.085938 175.101562 161.359375 174.0625 161.320312 C 174.0625 161.417969 174.042969 161.535156 174.003906 161.652344 C 173.261719 160.5 172.476562 159.363281 171.617188 158.40625 C 169.015625 155.511719 166.097656 152.933594 163.652344 149.902344 C 163.261719 149.414062 163.75 148.652344 164.375 148.984375 C 168.015625 150.976562 171.089844 153.8125 173.886719 156.863281 C 174.90625 157.996094 176.15625 159.265625 177.15625 160.65625 Z M 177.15625 160.65625 " fill-opacity="1" fill-rule="nonzero"/><path fill="#e06c4e" d="M 171.089844 166.734375 C 170.699219 167.03125 169.71875 167.65625 168.425781 168.4375 C 167.761719 167.382812 167.078125 166.363281 166.332031 165.445312 C 164.179688 162.785156 161.34375 160.421875 159.640625 157.429688 C 159.308594 156.824219 159.972656 156.335938 160.523438 156.589844 C 163.945312 158.074219 166.726562 161.515625 169.054688 164.332031 C 169.679688 165.074219 170.382812 165.894531 171.089844 166.734375 Z M 171.089844 166.734375 " fill-opacity="1" fill-rule="nonzero"/><path fill="#e06c4e" d="M 157.800781 164.273438 C 155.726562 163.21875 156.882812 166.265625 157.3125 167.148438 C 158.15625 168.886719 159.542969 170.46875 160.914062 171.820312 C 161.011719 171.917969 161.089844 172.035156 161.207031 172.152344 C 162.027344 171.78125 162.851562 171.371094 163.632812 171 C 162.066406 169.394531 160.128906 165.445312 157.800781 164.273438 Z M 157.800781 164.273438 " fill-opacity="1" fill-rule="nonzero"/><path fill="#e06c4e" d="M 185.628906 146.714844 C 185.472656 146.695312 185.292969 146.65625 185.15625 146.636719 C 185 146.617188 184.824219 146.578125 184.6875 146.558594 C 183.90625 146.402344 183.140625 146.226562 182.398438 146.011719 C 181.460938 143.742188 179.914062 141.183594 178.679688 139.089844 C 174.335938 131.621094 167.839844 131.210938 161.03125 133.007812 C 160.582031 132.519531 160.128906 132.011719 159.699219 131.523438 C 159.523438 131.328125 159.347656 131.132812 159.152344 130.898438 C 164.671875 128.199219 171.8125 128.53125 176.664062 132.34375 C 179.777344 134.789062 181.8125 138.210938 183.359375 141.769531 C 183.964844 143.214844 184.921875 145.191406 185.628906 146.714844 Z M 185.628906 146.714844 " fill-opacity="1" fill-rule="nonzero"/><path fill="#ffad96" d="M 330.488281 277.671875 C 307.261719 266.507812 265.074219 235.539062 265.074219 235.539062 L 276.246094 214.148438 C 276.246094 214.148438 341.835938 236.828125 353.792969 240.757812 C 365.75 244.6875 378.351562 258.902344 371.933594 271.964844 C 366.257812 283.460938 353.695312 288.835938 330.488281 277.671875 Z M 330.488281 277.671875 " fill-opacity="1" fill-rule="nonzero"/><path fill="#ffad96" d="M 274.269531 230.21875 C 271.15625 234.542969 266.792969 236.417969 266.792969 236.417969 C 266.792969 236.417969 244.566406 234.207031 236.523438 233.09375 C 232.902344 232.625 228.324219 233.347656 224.996094 231.746094 C 223.84375 231.199219 222.609375 230.296875 222.550781 229.007812 C 222.472656 227.367188 224.332031 226.386719 225.878906 225.917969 C 229.222656 224.863281 236.171875 223.984375 236.171875 223.984375 C 236.171875 223.984375 228.617188 219.839844 224.9375 217.53125 C 222.042969 215.695312 219.558594 212.371094 219.675781 209.183594 C 219.675781 208.34375 219.871094 207.519531 220.320312 206.71875 L 220.320312 206.699219 C 220.300781 206.699219 220.242188 206.699219 220.222656 206.679688 C 219.695312 206.621094 219.285156 206.40625 218.953125 206.035156 C 217.855469 204.84375 218.011719 202.300781 219.480469 201.207031 C 221.398438 199.757812 224.136719 200.207031 226.40625 201.011719 C 232.238281 203.101562 244.019531 205.761719 244.019531 205.761719 C 244.019531 205.761719 238.1875 198.625 234.3125 196.160156 C 232.785156 195.183594 231.140625 194.324219 229.988281 192.914062 C 228.8125 191.527344 228.265625 189.4375 229.242188 187.910156 C 230.144531 186.464844 232.082031 186.015625 233.726562 186.367188 C 235.386719 186.699219 236.816406 187.695312 238.207031 188.652344 C 243.9375 192.679688 249.671875 196.707031 255.40625 200.71875 C 256.050781 201.1875 256.855469 201.65625 257.597656 201.382812 C 258.417969 201.109375 258.695312 200.109375 258.851562 199.289062 C 259.554688 195.085938 256.875 187.910156 259.59375 184.253906 C 262.214844 180.734375 266.402344 183.511719 267.050781 187.050781 C 267.441406 189.316406 267.128906 191.703125 267.617188 193.972656 C 268.535156 198.3125 272.3125 201.441406 274.269531 205.410156 C 275.796875 208.441406 276.246094 211.839844 276.421875 215.242188 C 276.480469 216.261719 276.5 217.316406 276.519531 218.3125 C 276.695312 222.4375 276.695312 226.894531 274.269531 230.21875 Z M 274.269531 230.21875 " fill-opacity="1" fill-rule="nonzero"/><path fill="#e06c4e" d="M 220.222656 206.660156 C 219.695312 206.601562 219.285156 206.386719 218.953125 206.015625 C 219.382812 206.230469 219.792969 206.464844 220.222656 206.660156 Z M 220.222656 206.660156 " fill-opacity="1" fill-rule="nonzero"/><path fill="#e06c4e" d="M 245.035156 216.261719 C 238.851562 216.886719 231.652344 214.148438 225.878906 212.019531 C 223.6875 211.195312 221.59375 210.296875 219.675781 209.183594 C 219.675781 208.34375 219.871094 207.519531 220.320312 206.71875 C 223.335938 208.1875 226.503906 209.339844 229.753906 210.316406 C 234.917969 211.921875 240.632812 212.332031 245.523438 214.597656 C 246.386719 214.988281 245.835938 216.183594 245.035156 216.261719 Z M 245.035156 216.261719 " fill-opacity="1" fill-rule="nonzero"/><path fill="#fcd0ca" d="M 138.839844 116.351562 C 128.722656 114.355469 118.273438 112.207031 107.964844 111.738281 C 106.828125 111.679688 106.261719 113.476562 107.492188 113.789062 C 117.589844 116.390625 128.292969 117.425781 138.644531 118.464844 C 140.015625 118.601562 140.152344 116.605469 138.839844 116.351562 Z M 138.839844 116.351562 " fill-opacity="1" fill-rule="nonzero"/><path fill="#fcd0ca" d="M 123.03125 125.777344 C 112.953125 126.421875 102.835938 128.433594 93.03125 130.800781 C 91.78125 131.09375 92.113281 132.890625 93.386719 132.753906 C 103.402344 131.660156 113.617188 130.15625 123.304688 127.339844 C 124.300781 127.066406 124.066406 125.71875 123.03125 125.777344 Z M 123.03125 125.777344 " fill-opacity="1" fill-rule="nonzero"/><path fill="#fcd0ca" d="M 142.382812 133.441406 C 134.203125 136.800781 125.085938 139.871094 117.492188 144.46875 C 116.535156 145.054688 116.847656 146.792969 118.136719 146.5 C 126.847656 144.449219 135.476562 139.558594 143.183594 135.160156 C 144.222656 134.554688 143.519531 132.96875 142.382812 133.441406 Z M 142.382812 133.441406 " fill-opacity="1" fill-rule="nonzero"/><path fill="#fcd0ca" d="M 191.007812 164.976562 C 187.703125 171.273438 185.707031 178.585938 184.042969 185.464844 C 183.710938 186.816406 185.589844 187.265625 186.097656 186.035156 C 188.757812 179.367188 190.421875 172.464844 192.613281 165.660156 C 192.90625 164.703125 191.457031 164.097656 191.007812 164.976562 Z M 191.007812 164.976562 " fill-opacity="1" fill-rule="nonzero"/><path fill="#fcd0ca" d="M 205.332031 168.417969 C 205.097656 167.695312 204.117188 167.851562 204.039062 168.59375 C 203.316406 177.585938 205.429688 188.183594 207.640625 196.882812 C 207.855469 197.746094 209.246094 197.589844 209.207031 196.667969 C 208.855469 187.65625 208.167969 177 205.332031 168.417969 Z M 205.332031 168.417969 " fill-opacity="1" fill-rule="nonzero"/><path fill="#fcd0ca" d="M 289.296875 93.691406 C 281.726562 95.195312 272.957031 96.664062 266.402344 100.945312 C 265.074219 101.804688 266.226562 103.664062 267.617188 103.035156 C 274.757812 99.8125 283.289062 99.359375 289.882812 95.097656 C 290.648438 94.628906 290.160156 93.535156 289.296875 93.691406 Z M 289.296875 93.691406 " fill-opacity="1" fill-rule="nonzero"/><path fill="#fcd0ca" d="M 303.425781 116.722656 C 294.464844 114.257812 283.484375 112.421875 274.210938 112.949219 C 273.152344 113.007812 272.878906 114.515625 273.957031 114.828125 C 283.09375 117.445312 293.679688 118.40625 303.152344 118.699219 C 304.304688 118.738281 304.519531 117.035156 303.425781 116.722656 Z M 303.425781 116.722656 " fill-opacity="1" fill-rule="nonzero"/><path fill="#ed6243" d="M 194.238281 131.992188 C 193.886719 132.285156 193.570312 132.597656 193.21875 132.890625 C 192.964844 133.066406 192.691406 133.226562 192.398438 133.34375 C 190.929688 134.007812 189.148438 133.363281 187.976562 132.246094 C 187.074219 131.367188 186.332031 130.195312 185.6875 128.960938 C 185.960938 128.121094 186.351562 127.300781 186.78125 126.617188 C 188.699219 123.527344 192.242188 122.277344 195.566406 121.179688 C 195.824219 122.296875 196.019531 123.507812 196.097656 124.71875 C 196.253906 127.457031 195.863281 130.195312 194.238281 131.992188 Z M 194.238281 131.992188 " fill-opacity="1" fill-rule="nonzero"/><path fill="#ffffff" d="M 190.675781 112.050781 C 190.382812 112.519531 190.070312 112.949219 189.796875 113.320312 C 187.742188 116.195312 184.355469 118.855469 180.734375 119.421875 C 180.558594 118.542969 180.675781 117.621094 181.363281 116.546875 C 183.042969 113.828125 187.425781 110.230469 190.675781 112.050781 Z M 190.675781 112.050781 " fill-opacity="1" fill-rule="nonzero"/></svg>